<svg width="40" height="40" viewBox="0 0 40 40" fill="none" xmlns="http://www.w3.org/2000/svg">
<path d="M38.3906 12.1408L33.6719 16.8439C32.7344 27.7658 23.5156 36.2501 12.5 36.2501C10.2344 36.2501 8.35936 35.8908 6.93749 35.1876C5.79686 34.6095 5.32811 34.0001 5.20311 33.8126C5.09969 33.6556 5.03305 33.4772 5.00815 33.2907C4.98325 33.1043 5.00074 32.9147 5.05931 32.736C5.11789 32.5573 5.21603 32.3941 5.34644 32.2585C5.47685 32.123 5.63615 32.0187 5.81249 31.9533C5.84374 31.9376 9.53124 30.5314 11.9219 27.8283C10.4393 26.7726 9.13616 25.4854 8.06249 24.0158C5.92186 21.1095 3.65624 16.0626 5.01561 8.5314C5.05835 8.3075 5.16075 8.0993 5.31202 7.92878C5.46328 7.75827 5.65778 7.63177 5.87499 7.56265C6.09289 7.4913 6.32621 7.48126 6.54943 7.53362C6.77265 7.58598 6.97717 7.69872 7.14061 7.85952C7.18749 7.92202 12.3906 13.047 18.75 14.7033V13.7501C18.7561 12.7591 18.9574 11.7789 19.3424 10.8656C19.7273 9.95235 20.2884 9.12383 20.9935 8.42739C21.6987 7.73094 22.5341 7.18021 23.4521 6.80664C24.3701 6.43307 25.3527 6.24397 26.3437 6.25015C27.6445 6.2687 28.9183 6.62387 30.041 7.28105C31.1637 7.93824 32.097 8.87503 32.75 10.0001H37.5C37.7468 9.99937 37.9883 10.0717 38.194 10.2079C38.3998 10.3442 38.5606 10.5383 38.6562 10.7658C38.7463 10.9967 38.7691 11.2483 38.7221 11.4917C38.6751 11.735 38.5602 11.96 38.3906 12.1408Z" fill="#2595E6"/>
</svg>
