<svg width="38" height="38" viewBox="0 0 38 38" fill="none" xmlns="http://www.w3.org/2000/svg">
<path d="M33.1758 7.05078H4.82422C4.15496 7.05078 3.51312 7.31664 3.03988 7.78988C2.56664 8.26312 2.30078 8.90496 2.30078 9.57422V28.4258C2.30078 29.095 2.56664 29.7369 3.03988 30.2101C3.51312 30.6834 4.15496 30.9492 4.82422 30.9492H33.1758C33.845 30.9492 34.4869 30.6834 34.9601 30.2101C35.4334 29.7369 35.6992 29.095 35.6992 28.4258V9.57422C35.6992 8.90496 35.4334 8.26312 34.9601 7.78988C34.4869 7.31664 33.845 7.05078 33.1758 7.05078ZM9.5 24.9375H8.3125C7.99756 24.9375 7.69551 24.8124 7.47281 24.5897C7.25011 24.367 7.125 24.0649 7.125 23.75C7.125 23.4351 7.25011 23.133 7.47281 22.9103C7.69551 22.6876 7.99756 22.5625 8.3125 22.5625H9.5C9.81494 22.5625 10.117 22.6876 10.3397 22.9103C10.5624 23.133 10.6875 23.4351 10.6875 23.75C10.6875 24.0649 10.5624 24.367 10.3397 24.5897C10.117 24.8124 9.81494 24.9375 9.5 24.9375ZM23.75 24.9375H14.25C13.9351 24.9375 13.633 24.8124 13.4103 24.5897C13.1876 24.367 13.0625 24.0649 13.0625 23.75C13.0625 23.4351 13.1876 23.133 13.4103 22.9103C13.633 22.6876 13.9351 22.5625 14.25 22.5625H23.75C24.0649 22.5625 24.367 22.6876 24.5897 22.9103C24.8124 23.133 24.9375 23.4351 24.9375 23.75C24.9375 24.0649 24.8124 24.367 24.5897 24.5897C24.367 24.8124 24.0649 24.9375 23.75 24.9375ZM29.6875 24.9375H28.5C28.1851 24.9375 27.883 24.8124 27.6603 24.5897C27.4376 24.367 27.3125 24.0649 27.3125 23.75C27.3125 23.4351 27.4376 23.133 27.6603 22.9103C27.883 22.6876 28.1851 22.5625 28.5 22.5625H29.6875C30.0024 22.5625 30.3045 22.6876 30.5272 22.9103C30.7499 23.133 30.875 23.4351 30.875 23.75C30.875 24.0649 30.7499 24.367 30.5272 24.5897C30.3045 24.8124 30.0024 24.9375 29.6875 24.9375ZM29.6875 20.1875H8.3125C7.99756 20.1875 7.69551 20.0624 7.47281 19.8397C7.25011 19.617 7.125 19.3149 7.125 19C7.125 18.6851 7.25011 18.383 7.47281 18.1603C7.69551 17.9376 7.99756 17.8125 8.3125 17.8125H29.6875C30.0024 17.8125 30.3045 17.9376 30.5272 18.1603C30.7499 18.383 30.875 18.6851 30.875 19C30.875 19.3149 30.7499 19.617 30.5272 19.8397C30.3045 20.0624 30.0024 20.1875 29.6875 20.1875ZM29.6875 15.4375H8.3125C7.99756 15.4375 7.69551 15.3124 7.47281 15.0897C7.25011 14.867 7.125 14.5649 7.125 14.25C7.125 13.9351 7.25011 13.633 7.47281 13.4103C7.69551 13.1876 7.99756 13.0625 8.3125 13.0625H29.6875C30.0024 13.0625 30.3045 13.1876 30.5272 13.4103C30.7499 13.633 30.875 13.9351 30.875 14.25C30.875 14.5649 30.7499 14.867 30.5272 15.0897C30.3045 15.3124 30.0024 15.4375 29.6875 15.4375Z" fill="white"/>
</svg>
