<svg width="38" height="38" viewBox="0 0 38 38" fill="none" xmlns="http://www.w3.org/2000/svg">
<path d="M33.25 7.125V11.2812C33.25 11.5962 33.1249 11.8982 32.9022 12.1209C32.6795 12.3436 32.3774 12.4688 32.0625 12.4688C31.7476 12.4688 31.4455 12.3436 31.2228 12.1209C31.0001 11.8982 30.875 11.5962 30.875 11.2812V7.125H26.7188C26.4038 7.125 26.1018 6.99989 25.8791 6.77719C25.6564 6.55449 25.5312 6.25244 25.5312 5.9375C25.5312 5.62256 25.6564 5.32051 25.8791 5.09781C26.1018 4.87511 26.4038 4.75 26.7188 4.75H30.875C31.5049 4.75 32.109 5.00022 32.5544 5.44562C32.9998 5.89102 33.25 6.49511 33.25 7.125ZM32.0625 25.5312C31.7476 25.5312 31.4455 25.6564 31.2228 25.8791C31.0001 26.1018 30.875 26.4038 30.875 26.7188V30.875H26.7188C26.4038 30.875 26.1018 31.0001 25.8791 31.2228C25.6564 31.4455 25.5312 31.7476 25.5312 32.0625C25.5312 32.3774 25.6564 32.6795 25.8791 32.9022C26.1018 33.1249 26.4038 33.25 26.7188 33.25H30.875C31.5049 33.25 32.109 32.9998 32.5544 32.5544C32.9998 32.109 33.25 31.5049 33.25 30.875V26.7188C33.25 26.4038 33.1249 26.1018 32.9022 25.8791C32.6795 25.6564 32.3774 25.5312 32.0625 25.5312ZM11.2812 30.875H7.125V26.7188C7.125 26.4038 6.99989 26.1018 6.77719 25.8791C6.55449 25.6564 6.25244 25.5312 5.9375 25.5312C5.62256 25.5312 5.32051 25.6564 5.09781 25.8791C4.87511 26.1018 4.75 26.4038 4.75 26.7188V30.875C4.75 31.5049 5.00022 32.109 5.44562 32.5544C5.89102 32.9998 6.49511 33.25 7.125 33.25H11.2812C11.5962 33.25 11.8982 33.1249 12.1209 32.9022C12.3436 32.6795 12.4688 32.3774 12.4688 32.0625C12.4688 31.7476 12.3436 31.4455 12.1209 31.2228C11.8982 31.0001 11.5962 30.875 11.2812 30.875ZM5.9375 12.4688C6.25244 12.4688 6.55449 12.3436 6.77719 12.1209C6.99989 11.8982 7.125 11.5962 7.125 11.2812V7.125H11.2812C11.5962 7.125 11.8982 6.99989 12.1209 6.77719C12.3436 6.55449 12.4688 6.25244 12.4688 5.9375C12.4688 5.62256 12.3436 5.32051 12.1209 5.09781C11.8982 4.87511 11.5962 4.75 11.2812 4.75H7.125C6.49511 4.75 5.89102 5.00022 5.44562 5.44562C5.00022 5.89102 4.75 6.49511 4.75 7.125V11.2812C4.75 11.5962 4.87511 11.8982 5.09781 12.1209C5.32051 12.3436 5.62256 12.4688 5.9375 12.4688ZM15.007 21.0039C12.8919 21.9282 11.1503 23.539 10.0641 25.5758C9.96913 25.7557 9.92326 25.9574 9.93108 26.1607C9.9389 26.3639 10.0001 26.5615 10.1086 26.7336C10.2119 26.9096 10.3594 27.0555 10.5364 27.1571C10.7134 27.2586 10.9139 27.3122 11.118 27.3125H26.882C27.0861 27.3122 27.2866 27.2586 27.4636 27.1571C27.6406 27.0555 27.7881 26.9096 27.8914 26.7336C27.9999 26.5615 28.0611 26.3639 28.0689 26.1607C28.0767 25.9574 28.0309 25.7557 27.9359 25.5758C26.8497 23.539 25.1081 21.9282 22.993 21.0039C23.6071 20.4521 24.0978 19.7767 24.4329 19.0221C24.768 18.2675 24.94 17.4507 24.9375 16.625C24.9375 15.0503 24.3119 13.5401 23.1984 12.4266C22.0849 11.3131 20.5747 10.6875 19 10.6875C17.4253 10.6875 15.9151 11.3131 14.8016 12.4266C13.6881 13.5401 13.0625 15.0503 13.0625 16.625C13.06 17.4507 13.232 18.2675 13.5671 19.0221C13.9022 19.7767 14.3929 20.4521 15.007 21.0039Z" fill="white"/>
</svg>
