<svg width="20" height="20" viewBox="0 0 20 20" fill="none" xmlns="http://www.w3.org/2000/svg">
<path d="M16.4473 7.32812C16.4668 7.40625 16.4766 7.5332 16.4766 7.70898C16.4766 9.11523 16.1348 10.4727 15.4512 11.7812C14.748 13.168 13.7617 14.2715 12.4922 15.0918C11.1055 16.0098 9.51367 16.4688 7.7168 16.4688C5.99805 16.4688 4.42578 16.0098 3 15.0918C3.21484 15.1113 3.45898 15.1211 3.73242 15.1211C5.1582 15.1211 6.4375 14.6816 7.57031 13.8027C6.88672 13.8027 6.28125 13.6074 5.75391 13.2168C5.24609 12.8066 4.89453 12.2988 4.69922 11.6934C4.89453 11.7129 5.08008 11.7227 5.25586 11.7227C5.5293 11.7227 5.80273 11.6934 6.07617 11.6348C5.37305 11.4785 4.78711 11.1172 4.31836 10.5508C3.84961 9.98438 3.61523 9.33984 3.61523 8.61719V8.55859C4.04492 8.8125 4.50391 8.94922 4.99219 8.96875C4.58203 8.67578 4.25 8.30469 3.99609 7.85547C3.74219 7.40625 3.61523 6.91797 3.61523 6.39062C3.61523 5.84375 3.76172 5.32617 4.05469 4.83789C4.81641 5.79492 5.74414 6.55664 6.83789 7.12305C7.95117 7.68945 9.13281 8.00195 10.3828 8.06055C10.3438 7.82617 10.3242 7.5918 10.3242 7.35742C10.3242 6.81055 10.4609 6.30273 10.7344 5.83398C11.0078 5.3457 11.3789 4.96484 11.8477 4.69141C12.3164 4.41797 12.8242 4.28125 13.3711 4.28125C13.8203 4.28125 14.2305 4.36914 14.6016 4.54492C14.9922 4.7207 15.334 4.95508 15.627 5.24805C16.3301 5.11133 16.9844 4.86719 17.5898 4.51562C17.3555 5.23828 16.9062 5.80469 16.2422 6.21484C16.8281 6.13672 17.4141 5.9707 18 5.7168C17.5703 6.3418 17.0527 6.87891 16.4473 7.32812Z" fill="black"/>
</svg>
