<svg width="25" height="23" viewBox="0 0 25 23" fill="none" xmlns="http://www.w3.org/2000/svg">
<path d="M6.62656 8.37344C6.48703 8.20343 6.41573 7.9876 6.42652 7.76793C6.4373 7.54826 6.52942 7.34045 6.68493 7.18493C6.84045 7.02942 7.04826 6.9373 7.26793 6.92652C7.4876 6.91573 7.70343 6.98703 7.87344 7.12656L11.625 10.8891V1.625C11.625 1.39294 11.7172 1.17038 11.8813 1.00628C12.0454 0.842187 12.2679 0.75 12.5 0.75C12.7321 0.75 12.9546 0.842187 13.1187 1.00628C13.2828 1.17038 13.375 1.39294 13.375 1.625V10.8891L17.1266 7.12656C17.2966 6.98703 17.5124 6.91573 17.7321 6.92652C17.9517 6.9373 18.1595 7.02942 18.3151 7.18493C18.4706 7.34045 18.5627 7.54826 18.5735 7.76793C18.5843 7.9876 18.513 8.20343 18.3734 8.37344L13.1234 13.6234C12.9562 13.7852 12.7326 13.8756 12.5 13.8756C12.2674 13.8756 12.0438 13.7852 11.8766 13.6234L6.62656 8.37344ZM24.75 13.875V20.875C24.75 21.3391 24.5656 21.7842 24.2374 22.1124C23.9092 22.4406 23.4641 22.625 23 22.625H2C1.53587 22.625 1.09075 22.4406 0.762563 22.1124C0.434374 21.7842 0.25 21.3391 0.25 20.875V13.875C0.25 13.4109 0.434374 12.9658 0.762563 12.6376C1.09075 12.3094 1.53587 12.125 2 12.125H7.73125C7.78879 12.1232 7.84603 12.134 7.89894 12.1566C7.95185 12.1793 7.99915 12.2133 8.0375 12.2562L10.6406 14.8594C11.1346 15.351 11.8031 15.6269 12.5 15.6269C13.1969 15.6269 13.8654 15.351 14.3594 14.8594L16.9625 12.2562C17.0008 12.2133 17.0481 12.1793 17.1011 12.1566C17.154 12.134 17.2112 12.1232 17.2688 12.125H23C23.4641 12.125 23.9092 12.3094 24.2374 12.6376C24.5656 12.9658 24.75 13.4109 24.75 13.875ZM20.375 17.375C20.375 17.1154 20.298 16.8617 20.1538 16.6458C20.0096 16.43 19.8046 16.2617 19.5648 16.1624C19.3249 16.0631 19.061 16.0371 18.8064 16.0877C18.5518 16.1384 18.318 16.2634 18.1344 16.4469C17.9509 16.6305 17.8259 16.8643 17.7752 17.1189C17.7246 17.3735 17.7506 17.6374 17.8499 17.8773C17.9492 18.1171 18.1175 18.3221 18.3333 18.4663C18.5492 18.6105 18.8029 18.6875 19.0625 18.6875C19.4106 18.6875 19.7444 18.5492 19.9906 18.3031C20.2367 18.0569 20.375 17.7231 20.375 17.375Z" fill="white"/>
</svg>
