<svg width="36" height="37" viewBox="0 0 36 37" fill="none" xmlns="http://www.w3.org/2000/svg">
<g clip-path="url(#clip0_2105_869)">
<path d="M10.1503 36.391C10.5933 36.6098 11.1314 36.4921 11.4418 36.1028L28.3168 14.9387C28.5694 14.622 28.6182 14.1886 28.4424 13.8236C28.2666 13.4586 27.8973 13.2266 27.4922 13.2266H20.757L26.3273 2.0243C26.4898 1.69735 26.4718 1.30958 26.2794 0.999219C26.0871 0.688859 25.7479 0.5 25.3828 0.5H12.7266C12.2422 0.5 11.8201 0.829906 11.7031 1.29988L7.48436 18.2452C7.40596 18.5602 7.47698 18.8937 7.6768 19.1495C7.8767 19.4053 8.18327 19.5547 8.50783 19.5547H13.4865L9.59381 35.1905C9.47392 35.6718 9.7056 36.1715 10.1503 36.391ZM15.8594 18.7548C15.9378 18.4398 15.8668 18.1063 15.667 17.8505C15.4671 17.5947 15.1605 17.4453 14.836 17.4453H9.85727L13.5509 2.60938H23.6804L18.1102 13.8116C17.9476 14.1386 17.9657 14.5264 18.1581 14.8367C18.3503 15.1471 18.6896 15.3359 19.0546 15.3359H25.3022L12.8098 31.0035L15.8594 18.7548Z" fill="#367E62"/>
</g>
<defs>
<clipPath id="clip0_2105_869">
<rect width="36" height="36" fill="#ffffff" transform="translate(0 0.5)"/>
</clipPath>
</defs>
</svg>
