<svg xmlns="http://www.w3.org/2000/svg" width="683" height="150" viewBox="0 0 683 150"><path d="M582.7,49.4c17,.2,30.1,7.1,37.7,22.8,2.8,5.8,2.6,5.8-3.4,6.9l-10.7,1.7c-1.8.4-2.8.1-3.5-2-2.3-6.5-7.2-10.2-13.9-11.6s-10.6-1-15.7,1.1-6.6,3.5-7,7.9,2.7,6.4,5.8,8.3c4.6,2.8,9.8,4.1,15,5.3A124.8,124.8,0,0,1,604.8,95c15.7,6.5,22.5,21.8,16.1,36.7a26.4,26.4,0,0,1-14.2,14.4c-15.2,6.5-30.4,6.9-45.1-1.3-8.7-4.9-14.2-12.6-17.1-22.1-.9-3.1-.7-3.3,2.5-3.8l12.8-2c1.7-.3,2.5,0,3,1.7,2.9,9.6,9.9,13.8,19.4,14.5,5.3.3,10.4-.2,15.3-2.5a13,13,0,0,0,4.9-3.8c3.7-5,2.5-10.9-3-13.9a59.3,59.3,0,0,0-15.3-5.4,90,90,0,0,1-19.1-5.9c-6.5-3-11.9-7.1-15.1-13.7a25.3,25.3,0,0,1,10.9-33.5A44,44,0,0,1,582.7,49.4Z" fill="#ccc"/><path d="M368,51.5c-2,6-4,11.9-5.9,17.9-.6,1.8-2,1.6-3.3,1.6h-16c-4.5,0-4.5.1-4.5,4.4v69.8c0,1-.1,2,0,3s-.7,2.6-2.6,2.5H321.2c-1.9.1-2.7-.7-2.6-2.6a22.5,22.5,0,0,0,0-2.6c0-36.5.3-73-.1-109.5-.3-16.5,12.3-32.2,31.8-31.6h18.6c1.9-.1,2.5.5,1.9,2.3q-2.7,7.8-5.1,15.6c-.6,1.7-1.7,2.2-3.4,2.1h-13c-6.8.1-10.8,4-11,10.8-.1,4.2.1,8.4-.1,12.6s1.1,3.3,3.5,3.3H364A11.8,11.8,0,0,1,368,51.5Z" fill="#ccc"/><path d="M639.8,78.6V35.2c0-4.2,0-4.2,4-4.2s8.7.1,13,0c2.1-.1,2.9.7,2.8,2.8-.1,4.7.1,9.4,0,14.1-.1,2.3.6,3.3,3.1,3.2,5.8-.2,11.6,0,17.5-.1,2,0,2.8.7,2.8,2.8-.1,4.7-.2,9.4,0,14.1,0,2.3-.7,3.3-3.2,3.2-5.7-.2-11.4.1-17.1-.1-2.4-.1-3.2.8-3.1,3.2,0,15.2-.1,30.4,0,45.6.1,7,4,10.8,10.9,11h9.6c2.1,0,2.9.8,2.9,2.8-.1,4.9-.1,9.7-.1,14.5.1,1.6-.2,2.7-2.2,2.6-5-.1-10.1.5-15.2-.3-15.1-2.2-25.5-14.3-25.6-29.8C639.7,106.6,639.8,92.6,639.8,78.6Z" fill="#ccc"/><path d="M384.8,100.8v-46c0-3.7,0-3.7,3.6-3.8h46c3.2.1,3.3.1,2.3,3.1-1.5,4.6-3.1,9.1-4.5,13.7-.7,2.4-1.7,3.4-4.4,3.3-6-.2-12.1-.1-18.2-.1s-5-.5-5,5v69.4c-.1,6.1.5,5.2-5.5,5.3H388.7c-3.9,0-3.9,0-3.9-3.8V100.8Z" fill="#ccc"/><path d="M292,100.9V147c0,3.7-.1,3.7-3.7,3.7H276.1c-3.9,0-4,0-4-3.8V55.1c0-4,0-4,4-4.1H288c4,.1,4,.1,4,4.2Z" fill="#ccc"/><path d="M80.9,129.1a21.2,21.2,0,0,1-3.5,5.3,8.3,8.3,0,0,1-5.9,2.6c-16.9.7-33.7.2-50.5-.1-1.4,0-3,.3-3.6-1.3s1.2-2.2,1.9-3.2l4.1-4.1a6.3,6.3,0,0,1,1.2-1.1l.9-.4c2.4,1.1,4.4-.6,6.5-1,6.2,1.1,12.5.5,18.8,1,2.4.1,4.8-.7,7.2-.2,6.7-.5,13.4.3,20.1,0C79.9,126.5,81.4,126.8,80.9,129.1Z" fill="#757575"/><path d="M292,21c0,2.6-.1,5.2,0,7.8s-.6,2.2-2.2,2.2H274.2c-1.6,0-2.1-.8-2.1-2.3,0-5.1.1-10.1,0-15.2,0-1.7.6-2.5,2.4-2.4h15.2c1.8-.1,2.3.8,2.3,2.5S292,18.5,292,21Z" fill="#ccc"/><path d="M20,132.1c-.4.8-1.5,1.4-1.2,2.2s1.7.7,2.6.7l27.4.5a29.4,29.4,0,0,0,5.1-.5,12.6,12.6,0,0,1,5.1-.1c5.5,1.4,10.8-.4,16.2,0a5.9,5.9,0,0,0,2.2-.5,28.1,28.1,0,0,1-4.5,6.7c-3.7,2.6-8,2.1-12,1.9-15.3-.9-30.7.1-46-.5-1.2-.1-2.4.2-3.3-.9s1.8-2.7,2.4-4.1a28.9,28.9,0,0,1,6-6.1c.2.2.3.3.2.5Z" fill="#818181"/><path d="M69.9,145.5c-1.3,3.9-4,5.3-8.2,5.3-18.5-.2-36.9-.1-55.4-.1a8,8,0,0,1-4.2-.6,31,31,0,0,1,7.5-8.2l.9.3a5.4,5.4,0,0,1,1.2.9c1.1,1.7,2.8,1.2,4.3,1.3,6.5.1,13-.2,19.4.2,10.4,1,20.7.4,31,.5C67.6,145.1,68.9,144.4,69.9,145.5Z" fill="#909090"/><path d="M8.8,144l.7-1.5c.5-.3.3-1,.8-1.3V141l.6-.6h.1c.2-.4.4-.4.7-.1a6.3,6.3,0,0,0,3.6.7H72.9l-.3.8-.6.7h0a2.3,2.3,0,0,0-.7,1l-.8,1.3c-5.6,1.6-11.2.3-16.9.7-3.2-.6-6.4-.3-9.7-.3l-1,.3H40.4a3.9,3.9,0,0,0-2.4,0H37a9.2,9.2,0,0,0-2.9-.4h-1c-7.3-.4-14.7-.2-22-.5C10.2,144.7,9.3,145,8.8,144Z" fill="#8b8b8b"/><path d="M110.6,84.5l-1.5,2.2c-4.9-.3-9.8.5-14.9-.1-9.1-1-18.3.1-27.5.4a1.3,1.3,0,0,1-1.4-1,18.4,18.4,0,0,1,4.4-4.4c2.9-1.1,5.6-1.9,8.7-1s3.6-.4,5.4-.9a88.3,88.3,0,0,0,21.8.8,30.9,30.9,0,0,1,4.3.1c1.6.2,2.3.9,1.5,2.5h0C110.9,83.4,111.1,84.1,110.6,84.5Z" fill="#9d9d9d"/><path d="M88.3,117.9l-1.5,2.3c-7.1-.7-14.2-.3-21.3-.3-5.4,0-10.8-.7-16.1.8l-1-.2c-3.6-1.6-7.3-.2-10.9-.6-1.3-.2-3.1.7-3.4-1.5a2.5,2.5,0,0,1,.4-1.1,7.7,7.7,0,0,1,2.3-2.1c4.9-.2,9.8-.2,14.6-.6h1.1c3.8-.1,7.7.6,11.5.1h1c5.3,0,10.5-.1,15.7,0h1a2.7,2.7,0,0,0,.9,0h.9C85.6,115.1,89.1,113.3,88.3,117.9Z" fill="#818181"/><path d="M65.3,86c2.7-1.1,5.6-.6,8.4-.6a65.9,65.9,0,0,0,10.9-.9,3.7,3.7,0,0,1,1.8-.1c6.1,1.3,12.3.6,18.5.8,1.5,0,3.6-1,4.2,1.5a7.4,7.4,0,0,1-2.1,3.1c-5.6,1.2-11.3-.3-16.9.2-1.2-1.1-2.4-1.6-4-.7h-1c-5.2-.9-10.5.3-15.8-.1-1.9-.2-4,0-4.7-2.4Z" fill="#9c9c9c"/><path d="M124.8,63l-1.5,2.2c-4.1-.3-8.3.9-12.4-.7-.1-.1-.5,0-.6.1-4.1,2.7-8.4.5-12.6.4a17,17,0,0,0-4.4.8c-2.6.9-4.4-.2-5-2.8a13.4,13.4,0,0,1,3.8-3.7,1.1,1.1,0,0,1,.9-.4,56.2,56.2,0,0,0,14.2-.4c3-.4,6,.9,9.1.7a3.6,3.6,0,0,0,2.1-.5l1-.4h2a8.4,8.4,0,0,1,1.4.6c.1.1.3.1.4.3C125.5,59.6,125.8,61.1,124.8,63Z" fill="#a8a8a8"/><path d="M48.2,103.1a7.7,7.7,0,0,1,2.2-2.2c2.7-2,6.1-.3,8.9-1.8,2.4.8,5.1.1,7.5.4,6.7.7,13.3-1.2,20,.1a21.7,21.7,0,0,0,8.8-.1c2.6-.6,3.5.4,3.1,2.9h0l-.7.8h.1l-.9.7c-4.6.4-9.2,1.3-13.9,1-6.7-.5-13.4.3-20.1-.3-4.2-.3-8.7.5-13-.2C49.4,104.2,48.4,104.3,48.2,103.1Z" fill="#8f8f8f"/><path d="M103.2,95.6a7.7,7.7,0,0,1-2.2,3.1c-8.2-1.3-16.5-.2-24.8-.4-1.6,0-2.6,1.3-4.1,1.5a3.5,3.5,0,0,1-1.1-.3c-4.3-2.4-9.1-.7-13.7-1.4-1.1-.1-2.2.2-2.2-1.5a4.1,4.1,0,0,1,.5-.9h0l.8-.7h0l.7-.8h0a2,2,0,0,1,.8-.4l1.2-.4.9-.2c7.6.2,15.3-.1,22.9-.2l1-.2a12.8,12.8,0,0,0,2.7-.5h1l2.4.2c3.8.9,7.6-.1,11.4.4C103.4,93,104.2,93.7,103.2,95.6Z" fill="#959595"/><path d="M95.8,106.8,94.3,109a24.2,24.2,0,0,1-7.6-.3c-4.9-.2-9.8.3-14.7,0H67.4a25.5,25.5,0,0,0-7.3,0h-1a118.1,118.1,0,0,0-11.9,0c-1.2,0-2.8.7-3.5-1.1a6.9,6.9,0,0,1,2.3-2.2l.7-.8h0c.9-.9,1.9-.3,2.9-.4l1-.2c5.2,1.3,10.4,0,15.6.2,9.2.3,18.5.2,27.7-.2C96.2,103.9,96.8,104.8,95.8,106.8Z" fill="#8b8b8b"/><path d="M114.4,78.6l-1.5,2.3A26.4,26.4,0,0,0,97.4,80l-1-.2c-5-.3-10.1-.3-15.1-.4-1.4,0-2.4,1.4-3.8,1s-3.8,0-4-2.5a6.1,6.1,0,0,1,2.2-2.3l.9-.5c1.7-1.1,3.5-.4,5.1-.6,6.9-1,14,1.6,20.8-1.1,1.6-.6,3.6.4,5.4.6a49.9,49.9,0,0,0,5.4.7c1.7,0,2.4.8,1.9,2.4h-.1C114.6,77.5,114.8,78.2,114.4,78.6Z" fill="#a1a1a1"/><path d="M118.8,71.9l-1.4,2.3c-2.9,1-5.9.6-8.7.3-6.2-.7-12.2.8-18.3.2-3-.2-5.9.4-8.8.2-1.3-.1-3.2.1-2.9-2.3a6.6,6.6,0,0,1,2.2-2.2c5,0,10.1-1.8,15.1.1a.9.9,0,0,1,.3.6.4.4,0,0,0-.1-.3c-.1-.5.1.2,0-.3,2-1.9,4.6-1.4,6.9-1.4,4.7.2,9.3.9,13.9.2l1.2.2C119.3,70,119.4,70.9,118.8,71.9Z" fill="#a3a3a3"/><path d="M91.3,113.5l-.7.8-.5.2c-4.9.3-9.9,0-14.9.2-8.3.3-16.7-.6-25,.3-2.7.1-5.4.4-8.1.4s-2.9.2-3.5-1.6c1.3-3.2,3.9-3.6,6.9-3.5,9.6.2,19.3-.4,28.9,0,3.7.9,7.4-.2,11.1,0a23.2,23.2,0,0,0,3.7-.1C91.8,110.1,92.5,111.1,91.3,113.5Z" fill="#858585"/><path d="M71.2,97.9H72c6.6-.4,13.3.2,20-.3h.9a54.6,54.6,0,0,1,5.7.4c1.2,0,2.6.2,1.6,2.1l-1.5,2.3c-.6-1-1.3-1.9-2.7-1.5-4.2,1-8.5-.2-12.8-.2s-6.6.7-9.8.4c-4.7-.5-9.5,1-14.1-.9-.2-1.9,1.5-1.7,2.4-2.3C64.9,96.7,68.1,97.7,71.2,97.9Z" fill="#919191"/><path d="M88.3,63a5.5,5.5,0,0,0,5.3.8c3-.7,6.4-.2,9.5.5,1.2.3,2.5.9,3.6.1s4.8-1.3,7.3-.5a8.7,8.7,0,0,0,4.8,0c1.7-.5,3.4-.5,4.5,1.3a8.7,8.7,0,0,1-2.2,3.1,54,54,0,0,0-12-.9c-7.1,0-14.2,1.6-21.3.5-1.2-.2-2.6-.1-2.4-1.9a6.1,6.1,0,0,1,2.2-2.3l.7-.7Z" fill="#a7a7a7"/><path d="M85.4,66c7.8,1.6,15.7.1,23.6.1,3.4,0,6.9.4,10.3-.2,1.7-.3,2,1,1.8,2.4l-.8,1.4c-1,.3-2.2-.4-3,.7h-.7c-9.2-1.3-18.4-.4-27.6-.6-2.2,0-4.6,1.2-6.6-.9A9.2,9.2,0,0,1,85.4,66Z" fill="#a6a6a6"/><path d="M78.7,72.6c1.3,1.5,3.2.9,4.7,1,3.3.2,6.6-.1,9.9.5,1.3.2,2.9-.9,4.3-.8,5.4.2,10.8.1,16.2.1a6.6,6.6,0,0,1,3.6.8,8,8,0,0,1-2.2,2.9c-2.1-1.5-4.7-1.4-7.1-1.5-5.1-.3-10.2,0-15.3,0s-9.4,1.2-14.2-.2a5.8,5.8,0,0,0-2.2.2c-.2-.1-.2-.3-.2-.5l.2-.2h0l.8-.8h0l.7-.7h0l.8-.7Z" fill="#a2a2a2"/><path d="M95.8,106.8c-.2-1-.5-1.5-1.7-1.5-5.2-.2-10.5-.8-15.6-.4-7.6.7-15.2-1-22.7.6-1.8.3-3.6-1.3-5.4-.1s-2.5-.3-3.7-.8l1.5-1.5c7.6,1.2,15.1.2,22.7.4s14.2.9,21.3-.7c1.7-.4,3.3.6,5.1.3a1,1,0,0,1-.1,1.5Z" fill="#8d8d8d"/><path d="M74.2,111.3c-5.4.7-10.7,0-16.1.2s-10.1.2-15.1.1a3.8,3.8,0,0,0-3.7,1.9,1.8,1.8,0,0,0-.3,1.2,2.2,2.2,0,0,1-.9.7c-.3.1-.8.1-1.1.4l-2.2,1.5c-.2.3-.4.3-.7,0a52.5,52.5,0,0,1,7.4-7.5c1.6-1.7,3.8-1.7,5.9-1.6,3.6,0,7.2-.1,10.7.1s8.9.4,13.3-.1h1.8c1.6-.2,2.1.8,2.3,2.2S75,111.6,74.2,111.3Z" fill="#878787"/><path d="M82.4,68.9c3.4-.3,6.9.1,10.2-.2,5.4-.4,10.9.9,16.2-.3,2.3-.5,4.5,1.4,6.8-.1.5-.3.5,1.5,1,2.1a4.8,4.8,0,0,1-3.5.7,76.8,76.8,0,0,0-16.6.1c-3.2-.3-6.5-.5-9.7.6s-3.8-1.3-5.9-1.4Z" fill="#a5a5a5"/><path d="M87.6,93.5h-.7c-1.1-.1-1.9,1.1-3,.7s-5-.4-7.6-.5-4.6.7-6.1-1.8a5,5,0,0,1,.2-1.7,2.2,2.2,0,0,1,.9-.7c2.4-.4,5,2.6,7.4,0l1.5-.4a5.8,5.8,0,0,0,1.9.2H83a12.1,12.1,0,0,1,1.9.1H86a95.3,95.3,0,0,0,17.7.6c1.9-.1,2.2.5,1.8,2a9.7,9.7,0,0,1-2.3,3.6c-.3-.8-.9-1-1.8-1l-11.6-.4A2.9,2.9,0,0,0,87.6,93.5Z" fill="#989898"/><path d="M96.5,54.8,98,53.3c1.7-1.7,3.9-1.2,5.9-1.2,7.7-.3,15.5,0,23.2-.1,1.2,0,3.8-.9,3.6,2.1a7.1,7.1,0,0,1-2.2,3c-5.4.7-10.9-1.7-16.3.3h-1a77.5,77.5,0,0,0-11.8-.1C97.6,57.5,96.3,57.1,96.5,54.8Z" fill="#acacac"/><path d="M85.4,122.4l-.7.9h-.5c-9.4.6-18.9.3-28.4.1-3.1,0-6.3.4-9.4.2h-10a1.8,1.8,0,0,1-1.4-.8,2.6,2.6,0,0,1-.3-2.2c2.9-2.4,6.2-.5,9.3-.9s3.3.4,4.9-.1c9.2-.2,18.4,0,27.6.1h7.1C85.8,119.6,86.1,120.6,85.4,122.4Z" fill="#7d7d7d"/><path d="M85.4,122.4c-.9-2.6-3.4-1.9-5.1-1.9-5.4-.1-10.7,0-16.1-.3-3.4-.2-6.8,0-10.2.1a12.7,12.7,0,0,1-5.1-.8c3.8-1.7,7.7-1.2,11.6-1.1l23,.2c1.4,0,2.9-.3,3.3,1.6A6.4,6.4,0,0,1,85.4,122.4Z" fill="#7f7f7f"/><path d="M130.7,54.1a6.6,6.6,0,0,0-3.8-1.2c-9.6.7-19.3-.2-28.9.4,1.1-1.8,2.8-2.2,4.7-2.2h26.6C132.5,51.1,132.5,51.3,130.7,54.1Z" fill="#adadad"/><path d="M111.4,83.1c-.3-.6-.8-1.1-1.4-1s-3.6-.1-4.9.2c-3,.7-5.9.2-8.7.1s-7.1-.5-10.6-.5a3.7,3.7,0,0,1-1.9-1.1v-.5c1.1-1.3,2.5-1.1,4-1.2l9.5-.2c4.8-1.5,9.4.5,14.1,1,.7.1,1.1.9.7,1.8Z" fill="#9f9f9f"/><path d="M80.9,129.1c-1.2-1.4-2.7-1.3-4.4-1.3H57.9c-.6-.5-1.4-.7-1.7-1.5s1.1-1.7,2.6-1.7a56.1,56.1,0,0,1,5.8-.1c4.6.5,9.1-1.2,13.7-.8h1c.8,1.3,4.4-.1,3.1,3.2A4.8,4.8,0,0,1,80.9,129.1Z" fill="#787878"/><path d="M105.5,92c-.9-1.2-2.2-.8-3.4-.8-5.2-.2-10.4.7-15.6,0-.5-.1-.9-.2-1.1-.7s-.9-1.5,0-2.2h.7c1.5-.5,3,.4,4.5,0,4.8-.3,9.5,1.2,14.4.3a1.8,1.8,0,0,1,2,1.2A4.4,4.4,0,0,1,105.5,92Z" fill="#999"/><path d="M85.4,88.3v2.2h-.8a2,2,0,0,1-2.2,0c-1-.6-1.5.6-2.2.7l-.8-.7c-2.5.3-4.9.9-7.4,0h-.8c-2.5,2.2-5.4.3-8,.5s-.5-1.7-.1-2.7l1.5-1.5c4.6,1.7,9.4,1.2,14.1.7,2-.3,4.1,1,6-.5Z" fill="#9a9a9a"/><path d="M92.8,98.7c-3.6.5-7.1.1-10.7-.1a28.2,28.2,0,0,0-5.8.2,6.5,6.5,0,0,1-4.3-.9,14.4,14.4,0,0,1,6.5-1.1l18.1-.3a5.7,5.7,0,0,1,4.4,2.2l-.8,1.4A10.2,10.2,0,0,0,92.8,98.7Z" fill="#939393"/><path d="M71.2,92a11.3,11.3,0,0,0,5.7,1.2c2.3-.1,4.8-.5,7,1-1.9,1.2-3.9-.1-5.8,0l-14.4.4a11,11,0,0,1-4.4-.4c-.4-.4-1.2-.6-.7-1.4l.8-.8C63.3,90.8,67.3,90.2,71.2,92Z" fill="#979797"/><path d="M75,110.6l-2.3-1.5c.3-2.2,2.5-1.9,3.4-1.7,3.6.7,7.2-.2,10.8.2,2-.8,4,.4,6-.1s1.1.8,1.4,1.5l-1.5,2.2c-4.4-.9-8.8-.5-13.2-.1A9,9,0,0,1,75,110.6Z" fill="#898989"/><path d="M53.4,144.8H70.5l-.6.7a12.6,12.6,0,0,1-4.7.8c-9.1-.1-18.1,0-27.2,0a7.6,7.6,0,0,1-3.9-.8c-.3-.2-.4-.3-.3-.5l.3-.2c1-.7,1.9-.2,2.9,0h.8a15,15,0,0,1,3,0H43C46.5,144.9,49.9,144.1,53.4,144.8Z" fill="#8e8e8e"/><path d="M96.5,54.8c1.3.9,2.6.8,4.1.8,3.6,0,7.3-.8,10.8.7l.3.4a1.1,1.1,0,0,1-.1,1c-2.3,2.1-5,1.4-7.7,1.4s-4.2-.3-6.2.4-2.9-.2-4-1.2l-.2-.5A10.7,10.7,0,0,1,96.5,54.8Z" fill="#aaa"/><path d="M73.5,77.9l4.4,1.4c2.2-.3,4.7-1.8,6,1.5-2.4,1.1-4.7,1.9-7.3,1.2a4.5,4.5,0,0,0-3.9.5c-1.5,1-2.2.2-3-.9A13.4,13.4,0,0,1,73.5,77.9Z" fill="#9f9f9f"/><path d="M112.1,56.3a9.8,9.8,0,0,1,6.7-1c2.6.5,5.3.9,8,0s1.9.5,1.7,1.8a3.4,3.4,0,0,1-1.5,2.2,8.9,8.9,0,0,0-2.2.3l-.8-.2c-1.5-.5-2.9-1.7-4.4-.1s-5.1-.5-7.7-.5c-.7,0-.9-1-.5-1.8A4.6,4.6,0,0,1,112.1,56.3Z" fill="#aaa"/><path d="M75,110.6c4.2-.3,8.5-1.2,12.8-.4a5.3,5.3,0,0,0,2.5-.4c1.4-.5,2.1.2,2.5,1.4a6.1,6.1,0,0,1-1.5,2.3c-.2-2-1.7-1.9-3-1.8-3.3,0-6.6.2-9.8.3a7,7,0,0,1-4.3-.7Z" fill="#878787"/><path d="M58.6,109.1c-5.7.6-11.5-1.1-17.1.7a7.7,7.7,0,0,1,2.2-2.2c5.2-.2,10.4-.9,15.6,0C60,108.5,59,108.7,58.6,109.1Z" fill="#8a8a8a"/><path d="M112.2,81.7c-4.8-1.6-9.7-3.4-14.9-2.4l-.4-.3.4-.4c4.8-1.5,9.7-.6,14.5.1,1.1.2.9,1.3,1.1,2.2Z" fill="#a0a0a0"/><path d="M71.2,92c-3.9-.5-7.9,1.2-11.8,0a13,13,0,0,1,3.7-3.7c.2,1.1.7,1.6,2,1.6s4.1.4,6.1.6Z" fill="#999"/><path d="M124.8,57.8c1.5-.6,1.9.5,2.2,1.5h0c-.5.3-.3,1.1-.7,1.5L124.8,63c-.2-2.5-2.3-1.8-3.7-2.2V59.3c-.3-.3-.5-.3-.8,0h-.7C120.6,56.3,122.9,57.7,124.8,57.8Z" fill="#a9a9a9"/><path d="M62.3,98.7l-3,1.5c-1.2,1.3-2.8,1.1-4.4,1l-4.5-.3,1.5-1.5.8-.7h0l.7-.7h0a1.6,1.6,0,0,1,.9-.3,8.6,8.6,0,0,0,4.5.2A3.1,3.1,0,0,1,62.3,98.7Z" fill="#919191"/><path d="M82.4,126.9c-.8-1.5-2.6-1.3-3.7-2.2.7-2.3,2.2-2.6,5.3-1a.8.8,0,0,1-.1,1A6.6,6.6,0,0,1,82.4,126.9Z" fill="#7a7a7a"/><path d="M88.3,117.9c-1.2-2.8-3.9-1.5-5.9-2.1-.5-2.5,1.3-2.2,2.7-2s3.2.7,4.9,1a.6.6,0,0,1-.2.9Z" fill="#838383"/><path d="M117.3,70.4c.5-2.3,1.8-1.4,3-.7l-1.5,2.2A2.8,2.8,0,0,0,117.3,70.4Z" fill="#a5a5a5"/><path d="M25.1,127.7h-.7c-.2.3-.4.3-.7,0a14.5,14.5,0,0,1,3.7-3.7.8.8,0,0,1,1-.2,1.8,1.8,0,0,1,.4,1,4.2,4.2,0,0,1-.9,1.4C27.3,127.2,25.9,126.9,25.1,127.7Z" fill="#7f7f7f"/><path d="M20,132.1v-.7a10.7,10.7,0,0,1,3-3c.2-.3.4-.3.7,0A14.5,14.5,0,0,1,20,132.1Z" fill="#7b7b7b"/><path d="M28.9,122.5a10.7,10.7,0,0,1,3-3,.8.8,0,0,1,1-.1,1.6,1.6,0,0,1,.3,1.5,4.2,4.2,0,0,0-.4,1l-.9.7a5.7,5.7,0,0,1-1.3.8,2.1,2.1,0,0,1-1.1-.1A1.6,1.6,0,0,1,28.9,122.5Z" fill="#838383"/><path d="M11.8,140.3h-.7a7.4,7.4,0,0,1,2.9-2.9A5.1,5.1,0,0,1,11.8,140.3Z" fill="#8c8c8c"/><path d="M32.6,119.5h-.7a5.8,5.8,0,0,1,2.2-2.2h.7v.7C34.4,119,34.3,120.4,32.6,119.5Z" fill="#858585"/><path d="M58.6,92.8l.7,1.4h-.7a.4.4,0,0,1-.7,0h-.8Z" fill="#979797"/><path d="M28.9,122.5h.7q.6,2.1-1.5,1.5h-.7Z" fill="#818181"/><path d="M126.3,60.8l.7-1.5Z" fill="#aaa"/><path d="M97.2,104.6v-1.5h.8Z" fill="#919191"/><path d="M110.6,84.5l.8-1.4Z" fill="#9f9f9f"/><path d="M83.9,124.7V124c-.3-.8,0-.9.7-.8h.1A10,10,0,0,1,83.9,124.7Z" fill="#7d7d7d"/><path d="M89.8,115.7V115c-.3-.7,0-.9.7-.7h.1Z" fill="#858585"/><path d="M23.7,128.4H23l.7-.7h.7Z" fill="#7c7c7c"/><path d="M114.4,78.6l.7-1.5Z" fill="#a2a2a2"/><path d="M10.3,141.2l-.8,1.3a1.3,1.3,0,0,1,.1-.6Z" fill="#8c8c8c"/><path d="M46.7,104.6l-.7.8Z" fill="#8d8d8d"/><path d="M92.8,58.5l.7-.7h.1c.4.5,0,.8-.4,1Z" fill="#aaa"/><path d="M92.8,59.3h-.7l.7-.8h0c.2.2.3.4.2.5S92.9,59.3,92.8,59.3Z" fill="#aaa"/><path d="M52.7,98.7l-.8.7Z" fill="#939393"/><path d="M53.4,98l-.7.7Z" fill="#939393"/><path d="M98,103.2l.7-.8Z" fill="#919191"/><path d="M54.1,97.9h-.7l.7-.7.3.4Z" fill="#979797"/><path d="M78.7,72.7l-.8.7Z" fill="#a3a3a3"/><path d="M54.1,97.2l.8-.8.2.5a.9.9,0,0,1-.9.3Z" fill="#979797"/><path d="M55.6,95.7v.8c-.2.3-.4.3-.7,0h0Z" fill="#979797"/><path d="M56.4,95l-.8.7Z" fill="#979797"/><path d="M57.1,94.2l-.7.8Z" fill="#979797"/><path d="M11,140.4l-.6.6Z" fill="#8c8c8c"/><path d="M88.3,63l-.7.7Z" fill="#a8a8a8"/><path d="M72,142.6l.6-.7Z" fill="#8c8c8c"/><path d="M71.3,143.5l.7-1Z" fill="#8c8c8c"/><path d="M76.4,74.9v.7h-.7Z" fill="#a3a3a3"/><path d="M77.2,74.1l-.8.8Z" fill="#a3a3a3"/><path d="M77.9,73.4l-.7.7Z" fill="#a3a3a3"/><path d="M239.7,81.8c-1.8-1.7-2.3-2.6-.4-4.9,10.6-13,12.9-27.5,5.8-42.7S225.6,11.5,209,11.1c-14.9-.3-29.9,0-44.9,0-4.5,0-4.5,0-4.5,4.3V146.5c0,4.2,0,4.2,3.9,4.2,16.5,0,33,.1,49.4,0,13.3-.2,24-5.8,31.8-16.5C256.6,117.6,254.5,96.2,239.7,81.8ZM182.7,31c9.1.1,18.3-.2,27.4.2s14.1,4.5,17.3,12,2,14.6-3.2,20.8a18.5,18.5,0,0,1-14.6,7c-9.2.2-18.3,0-27.5.1-2.2,0-2.7-1-2.7-2.9.1-5.7,0-11.4,0-17.1s.1-11.1,0-16.7C179.3,31.9,179.9,30.9,182.7,31Zm36.6,98.6a21.9,21.9,0,0,1-8,1.2H183c-3.5,0-3.5,0-3.6-3.5V110.6c0-5.7.1-11.4,0-17.1,0-1.8.6-2.7,2.5-2.7,10.8.2,21.6-.2,32.4.3s16.7,7.9,18,17.7S227.9,126.4,219.3,129.6Z" fill="#ccc"/><path d="M527.1,79.1c-6.1-18.3-20.6-29-39.8-29.7s-35.9,10.1-42.6,28.9c-2.4,6.5-3.4,13.2-3.7,21.1a83.9,83.9,0,0,0,1.4,14.1c4.2,20.8,17.6,34.4,37.4,36.8s37.1-6.2,45.3-24.5C531.9,110.6,532.3,94.9,527.1,79.1Zm-19.2,36.5c-4.1,10.3-11.3,15.2-22.2,15.2s-18.2-5-22-15.1a42.7,42.7,0,0,1,.7-32.9c3.8-9,11-13.3,20.7-13.5s17.1,3.5,21.6,12.3a40.1,40.1,0,0,1,3.9,18.2A42,42,0,0,1,507.9,115.6Z" fill="#ccc"/><path d="M57.1,126.2l.8,1.5c-7.5.9-15.1-.2-22.6.3a5.1,5.1,0,0,1-3.5-1.1.7.7,0,0,0,.1-.5c2.1-1.9,4.8-1,7.2-1.4a25.4,25.4,0,0,1,3.9,0h1.9a8.6,8.6,0,0,0,2.8-.2l.9-.2h2.3l1.8.4h1c.9.2,2-.3,2.9.4A4.1,4.1,0,0,0,57.1,126.2Z" fill="#777"/><path d="M25.1,127.7a8.4,8.4,0,0,1,2.3-2.3H28c3.3-.6,3.3-.6,3.8,1.5h0A7.3,7.3,0,0,1,25.1,127.7Z" fill="#777"/><path d="M34.1,144.8v.7a8.7,8.7,0,0,1-2.2.5l-22.6-.4c-1.6,0-1.8-.5-.5-1.6C17.2,144.4,25.7,143.7,34.1,144.8Z" fill="#8c8c8c"/><path d="M53.4,144.8c-3.5.1-6.9,1.2-10.4,0A15.5,15.5,0,0,1,53.4,144.8Z" fill="#8c8c8c"/><path d="M40.8,144.8a2.7,2.7,0,0,1-3,0C38.8,143.5,39.8,143.9,40.8,144.8Z" fill="#8c8c8c"/><path d="M37,144.8a5.7,5.7,0,0,1-2.9,0A2.3,2.3,0,0,1,37,144.8Z" fill="#8c8c8c"/><path d="M90.5,114.3l-.7.7c-1.3.5-2.6,0-3.9-.2s-2.6-.4-3.5,1-.5.3-.7,0h-.8c-5.4-.8-10.9-.4-16.3,0h0c-4.3-.6-8.5,0-12.7,0-.4-.6-1.3-.7-1.5-1.5,2.7-1.8,5.8-1.1,8.7-.9a88.1,88.1,0,0,0,8.9,0,70.9,70.9,0,0,1,10.3.2c3.5.3,7.1-1,10.6-.1C89.6,113.7,90.1,113.7,90.5,114.3Z" fill="#848484"/><path d="M32.6,119.5l2.2-1.5c3.1,1,6.4.7,9.5.3a5,5,0,0,1,4.6,1.2c-1.1,1.5-2.7,1.3-4.3,1.2s-6.1-1.2-9,.3c-1.3,1.1-2.5,1.7-3.8,0Z" fill="#7f7f7f"/><path d="M50.4,114.3a2.8,2.8,0,0,1,1.5,1.5c-4.9.1-9.9,1.3-14.9,0l.8-.8.7-.7.8-.8c2.3,1.6,5,.9,7.5.8A10.9,10.9,0,0,1,50.4,114.3Z" fill="#838383"/><path d="M64.6,115.8c5.4-1.4,10.9-1.8,16.3,0A110.9,110.9,0,0,1,64.6,115.8Z" fill="#838383"/><path d="M51.9,115.8c4.2-.7,8.4-2,12.7,0A38.7,38.7,0,0,1,51.9,115.8Z" fill="#838383"/><path d="M81.7,115.8h0Z" fill="#838383"/><path d="M90.6,88.3a2.9,2.9,0,0,1-4.5,0C87.6,86.1,89.1,87.5,90.6,88.3Z" fill="#9a9a9a"/><path d="M92.8,59.3v-.8l.8-.7c2.6.4,5.3,1.1,7.9-.4a2,2,0,0,1,2.1.1c2.7,1.4,5.2.6,7.8-.5,2.6,1.2,5.8.1,8.2,2.3-1.9,3.2-5,1.4-7.4,1.3s-5.1-.8-7.6.1a4.2,4.2,0,0,1-2.9-.2c-.7-.3-1.7-.7-2.1-.2C96.7,63.6,94.9,60.6,92.8,59.3Z" fill="#a9a9a9"/><path d="M54.9,96.5h.7c4.5.9,9-.4,13.4.5.9.1,1.8-.1,2.2.9-2.3.9-4.8.3-7.2.4-.6.1-1.2,0-1.7.4a9,9,0,0,0-4,.2,3.9,3.9,0,0,1-4.2-1,1.5,1.5,0,0,0,.1-.7Z" fill="#939393"/><path d="M83.9,94.2a2.4,2.4,0,0,1,3-.7C86.2,94.9,85.1,94.8,83.9,94.2Z" fill="#979797"/><path d="M87.6,93.5c1-.6,1.7-.1,2.2.7Z" fill="#979797"/><path d="M57.9,94.2h0Z" fill="#979797"/><path d="M86.9,107.6a23.8,23.8,0,0,1-8.8.4,8.4,8.4,0,0,0-5.4,1.1H71.2c-.4-.4-1.3-.6-.7-1.5A50.1,50.1,0,0,1,86.9,107.6Z" fill="#8a8a8a"/><path d="M70.5,107.6l.7,1.5c-4.2,1.2-8.4.1-12.6,0l.7-1.5h.8c2.7-.2,5.4,0,8.2,0H69c.3.3.5.3.8,0A.4.4,0,0,1,70.5,107.6Z" fill="#898989"/><path d="M68.3,107.6a14.3,14.3,0,0,1-8.2,0A11.6,11.6,0,0,1,68.3,107.6Z" fill="#8a8a8a"/><path d="M83.9,80.8c-1.7-1.6-4.1-.6-6-1.5.5-.5,1.1-1.2,1.8-1.1,5.6.1,11.2-.6,16.8.4.4.2.5.5.8.7-3.1,1.2-6.4.3-9.5.9Z" fill="#a0a0a0"/><path d="M97.3,79.3l-.8-.7h.8Z" fill="#9f9f9f"/><path d="M38.5,114.3l-.7.7Z" fill="#858585"/><path d="M72,90.5c2.5-.1,4.9-1.8,7.4,0C76.9,92,74.5,92.3,72,90.5Z" fill="#999"/><path d="M82.4,90.5a2.8,2.8,0,0,1,2.2,0C83.9,91.4,83.1,92,82.4,90.5Z" fill="#999"/><path d="M80.2,91.2c.5-.8.9-2.2,2.2-.7C81.7,90.9,81.1,91.5,80.2,91.2Z" fill="#999"/><path d="M112.1,56.3l-.7.7v-.7Z" fill="#a9a9a9"/><path d="M84.6,123.2l-.7.8c-1.9-.5-3.7-1.3-5.2.7-7.8,0-15.5-.8-23.2.4-3,.5-5.6-1.2-8.5-.9a1.6,1.6,0,0,1-1-1.7c4.6-1,9.3-.4,14-.5,7.2-.2,14.5.5,21.8,0C82.9,122,84.1,121.8,84.6,123.2Z" fill="#7c7c7c"/><path d="M28.1,124l1.5-1.5h.7c1.7-.8,3.5-.5,5.3-.8h0c.3.5,1.1.3,1.4.8h1.5l.8.8c.2,1.7-1,1.8-2.3,2.1-2.9.5-5.7-.2-8.6-.3l-.3-.4Z" fill="#7b7b7b"/><path d="M35.6,121.7a5.3,5.3,0,0,1-5.3.8l.8-.8.7-.7h3.8Z" fill="#7c7c7c"/><path d="M42.2,122.5H43c.7-.6,1.3-.4,1.8.3a1.1,1.1,0,0,1,0,1.1c-.9,1.2-2.3,1.3-3.6,1.5s-1.9-.6-1.8-1.9a1.7,1.7,0,0,1,.6-1h.8A.8.8,0,0,1,42.2,122.5Z" fill="#7b7b7b"/><path d="M46,122.5l1.4.7c.3,1.2-.4,1.6-1.4,1.6s-1.7-.4-1.5-1.6.2-.7.7-.7Z" fill="#7b7b7b"/><path d="M45.2,122.5l-.7.7-1.5-.7A1.8,1.8,0,0,1,45.2,122.5Z" fill="#7c7c7c"/><path d="M40,122.5v.7a.9.9,0,0,1-1.5,0v-.7Z" fill="#7c7c7c"/><path d="M37,122.5l-1.4-.8Z" fill="#7c7c7c"/><path d="M42.2,122.5H40.8A1,1,0,0,1,42.2,122.5Z" fill="#7c7c7c"/><path d="M44.5,123.2a2.3,2.3,0,0,0,2.9,0c9.2.8,18.4.1,27.5.3a4.9,4.9,0,0,1,3.8,1.2,101.6,101.6,0,0,1-19.1,1.1,4.3,4.3,0,0,0-2.5.4h-.7c-1,.5-2-.8-3,0h-.7c-.8-.9-1.5-.6-2.3,0H48.2c-1.2-1.4-2.5.4-3.7,0h0c-.3-.3-.5-.3-.8,0s-1.8-.5-2.2-1.5Z" fill="#7a7a7a"/><path d="M27.4,125.4l.7-.7h0c.3.7,0,1-.7.7Z" fill="#7b7b7b"/><path d="M31.8,121l-.7.7Z" fill="#7f7f7f"/><path d="M27.4,125.4l.7-.7a14.7,14.7,0,0,1,4.7-.3c1.9,0,4.1.7,5.7-1.2H40l1.5,1.5,2.2,1.5a80,80,0,0,0-11.9.7Z" fill="#787878"/><path d="M44.5,126.2c1.2-.6,2.5-2.2,3.7,0C47,126.5,45.7,126.9,44.5,126.2Z" fill="#787878"/><path d="M53.4,126.2a2.7,2.7,0,0,1,3,0A3.2,3.2,0,0,1,53.4,126.2Z" fill="#787878"/><path d="M50.4,126.2c.8-.9,1.5-1.5,2.3,0Z" fill="#787878"/><path d="M48.9,126.2h0Z" fill="#787878"/></svg>