<svg xmlns="http://www.w3.org/2000/svg" width="578.6" height="147.6" viewBox="0 0 578.6 147.6"><path d="M327.9,134.2v-7.4c0-2.5.8-3.5,3.3-4.3,21.7-6.9,33.7-21.1,37.4-41.2,3.4-18.3-2.7-34.1-17.8-46.9-7.4-6.3-16.3-10.1-26.3-11.8-25.3-4.4-50.9,6.6-62.7,27.1a46.6,46.6,0,0,0-5.7,28,47.9,47.9,0,0,0,12.5,29,54.4,54.4,0,0,0,24.3,15.5c4.2,1.3,4.5,1.7,4.5,5.7v14.7c0,3-1.7,4.3-5,3.5-16.4-3.7-30.3-11.2-41.6-22.7S233.2,99.1,231,84.3a65.9,65.9,0,0,1,6.7-40.6c8.7-17,22.5-29.4,41.4-37a83.2,83.2,0,0,1,45-5.1c31.3,5,52.3,21.3,63.8,47.8a61.6,61.6,0,0,1,4.7,29.3c-1.8,21.4-11.6,39.2-30,53a81.6,81.6,0,0,1-29.5,13.8c-3.3.9-5.1-.3-5.2-3.5s0-5.2,0-7.8Z" fill="#ccc"/><path d="M94.7,92.3c0-7,.1-14.1,0-21.1-.2-12.7,6.4-21.6,18.8-26.7,16.4-6.8,33-6.3,48.8,1.7,10.6,5.4,16.4,13.9,16.4,25.2-.1,15,0,30.1,0,45.1-.1,2.9-1.1,3.9-4.5,3.9H146c-3.3,0-4.5-1.1-4.5-4.1,0-14.2,0-28.3.1-42.5,0-3.7-2.3-5.5-5.1-5.5S130,71,130,73.9c.2,14.1.1,28.1.1,42.1,0,3.5-1.1,4.4-5,4.4H99.4c-3.6,0-4.7-.9-4.7-4.1Z" fill="#ccc"/><path d="M481.6,70c0,6.5-.2,13,.1,19.6.5,15.7-10.2,27.6-24.5,32.4s-30.5,4.3-44.2-4.8a30.3,30.3,0,0,1-13.2-19.7,49.7,49.7,0,0,1-.8-9.4c.1-13.5,0-26.9,0-40.4,0-3.3,1.1-4.3,4.7-4.3h26.6c2.9,0,4.1,1.1,4.1,3.8V88.4a10.5,10.5,0,0,0,.5,3.6c1.2,3.2,4.9,4.2,7.9,2.2A6.8,6.8,0,0,0,446,88c-.1-13.4-.1-26.8-.1-40.2,0-3.5,1-4.4,4.8-4.4h27c2.7,0,3.9,1.1,3.9,3.6Z" fill="#ccc"/><path d="M86.4,70.2c0,6.3-.3,12.5,0,18.8.7,17.3-11.6,29.8-28,34.1-13.7,3.5-26.9,2.6-39-4.8-9.3-5.7-14.2-13.8-15.3-23.8-.8-7.4-.2-14.8-.3-22.2s0-16.5,0-24.8c0-3.1,1.1-4.1,4.4-4.1H34.4c3.7,0,4.7.9,4.7,4.2V88.7a9.9,9.9,0,0,0,.3,2.4c1,3.1,2.5,4.3,5.3,4.1s5.5-2.6,5.8-5a27.1,27.1,0,0,0,.1-2.9V48.2c0-3.9.9-4.8,5.3-4.8H82.4c2.8,0,3.9,1.1,4,3.6Z" fill="#ccc"/><path d="M533.4,39.6c12.5-.1,23.2,3.1,32.1,10.7a48.7,48.7,0,0,1,12.7,17q1.3,2.7-1.5,4.2L539,90.3c-2.1,1.1-3.8.7-5-1.1l-5.4-8.6c-1.2-2.1-.7-3.5,1.6-4.7l9.6-4.7a5.2,5.2,0,0,0,1.8-1.2c1.2-1.5.7-2.8-1.2-3.4a14.7,14.7,0,0,0-9.9,1.2,31.3,31.3,0,0,0-8.9,6.6c-1.7,1.9-2.5,4-1.6,6.4a39.6,39.6,0,0,0,5.9,11.8c4.4,5.8,11.8,7.3,19.6,4.2a41,41,0,0,0,11.1-7c2.9-2.5,4.3-2.5,7.1,0l13.2,11.7c2.1,1.9,2.3,3,.4,5.1-8.2,8.8-18.8,14.1-31.1,16.7a55.5,55.5,0,0,1-29.7-1.6c-12-4.2-20.2-12-24.5-23-5.2-13-5.1-25.9,2.3-38.2s18.2-18.3,32.6-20.6C529.2,39.6,531.5,39.7,533.4,39.6Z" fill="#ccc"/><path d="M187,80.6V44.9c0-2.9,1.2-4,4.4-4h27.8c3.3,0,4.5,1.1,4.5,4v71.7c0,2.7-1.2,3.8-4.1,3.8H191.1c-3,0-4.1-1.1-4.1-3.8Z" fill="#ccc"/><path d="M289,73.5c-.5-10.1,7.5-19,16.5-21.7a24,24,0,0,1,28.2,11.1c4.4,7.8,3.6,15.7-.9,23.3-.8,1.2-1.7,2.5-3.6,2s-2.3-1.8-2.3-3.4-1.3-3.5-3.9-3.5H302.6c-3.1,0-4,1-4.2,3.9s-1.1,3.3-3.1,3.2a2.9,2.9,0,0,1-2.3-1.6A21.9,21.9,0,0,1,289,73.5Z" fill="#ccc"/></svg>