<svg xmlns="http://www.w3.org/2000/svg" width="644.3" height="150" viewBox="0 0 644.3 150"><path d="M207.6,103h40.7c2.4-.1,3.2.8,3.1,3.1a60.5,60.5,0,0,0-.1,6.1H193.9c-.5-3.6-.3-6.8,1.6-10a426.8,426.8,0,0,1,37.2-54.9l3.1-3.9h-40c0-3-.1-5.6.1-8.2,0-.5,1.2-1.3,1.8-1.3h52.2c.5,4.9.3,8.8-3.2,12.9a366.7,366.7,0,0,0-38.1,54.2A14.2,14.2,0,0,0,207.6,103Z" fill="#ccc"/><path d="M588.4,64.1c-6.2-1.9-11.9-3.6-18.1-2.1-3.1.7-5.8,1.8-6.6,5.3s.9,6.2,4.7,8c5.3,2.5,10.8,4.4,16,6.9,7.2,3.5,10.3,9.4,9.3,17.3-.8,6.1-4.3,10.1-10.1,12.3-8.6,3.3-22,2.9-31.8-1.3l1.7-8.6c6.2.9,11.9,1.8,17.6,2.4a17.1,17.1,0,0,0,5.9-.7c2.6-.6,4.9-1.7,5.4-4.7s-.4-5.7-3.1-7.3a113.4,113.4,0,0,0-10.5-5.1c-2.9-1.4-6-2.5-8.7-4.2a15.7,15.7,0,0,1,1-27.5c7.3-3.8,14.9-3.3,22.6-2s7.1,1.3,5.6,8.2A25.4,25.4,0,0,1,588.4,64.1Z" fill="#ccc"/><path d="M364.4,35.1V53.2h22.3v9.5H364.8c-.1,1-.3,1.8-.3,2.5.2,10.1.1,20.2.6,30.2.4,6.4,3.7,9.2,10.2,8.9,3.9-.1,7.7-1.2,11.9-1.8a56.2,56.2,0,0,1,1.6,6.5,3,3,0,0,1-1.4,2.4c-7.3,2.9-14.8,3.6-22.3,1.2s-11.2-8.6-11.4-18.7-.1-21.2-.1-31.8c0-7.4.1-14.8,0-22.2-.1-2.2.5-3.3,2.9-3.4A78.6,78.6,0,0,0,364.4,35.1Z" fill="#ccc"/><path d="M616.9,35.1V53.3c6.5,0,12.6.2,18.7,0,3.2-.2,4.2.9,3.9,3.9a48.1,48.1,0,0,0-.1,5.5H617.6c0,11.6-.3,22.7.2,33.8.1,5.1,3.4,7.7,8.5,7.8a63,63,0,0,0,9.6-1.2c1.1-.2,2.2-.7,3.7-1.1.6,2.6,1.4,4.8,1.7,7.1a2.9,2.9,0,0,1-1.6,2.4,33.1,33.1,0,0,1-21.3,1.4c-7.8-2-12.1-8.7-12.2-19.1-.2-14.2-.1-28.4-.1-42.6,0-4,0-7.9-.1-11.8,0-1.8.6-2.7,2.4-2.9S613.7,35.7,616.9,35.1Z" fill="#ccc"/><path d="M336.4,53.5v58.8H326V53.5Z" fill="#ccc"/><path d="M538.2,53.3v58.9H527.7c0-1-.1-2-.1-3-.1-17.4,0-34.9-.1-52.4,0-2.7.7-3.8,3.5-3.5S535.5,53.3,538.2,53.3Z" fill="#ccc"/><path d="M338,36.2c0,4.3-2.9,7.1-7.2,7s-6.7-2.8-6.7-7.1,2.7-7.1,7-7.1S338,31.9,338,36.2Z" fill="#ccc"/><path d="M526.1,36.2c-.1-4.5,2.5-7.2,6.8-7.2s7,2.8,7,7.2-2.7,7-6.7,7S526.1,40.6,526.1,36.2Z" fill="#ccc"/><path d="M444.1,54.5c-6.2-.8-12.3-2.3-18.5-2.4-17.2-.4-27.5,8.2-29.9,25.2-1.5,10.6.5,20.8,9.4,27.9s18.2,6.6,28,3l2.1-.6c1.4,8.5-2.5,14.4-10.4,15.7a51.1,51.1,0,0,1-11.7.3,117.5,117.5,0,0,1-12.4-2.4c-.6,2.3-1,4.6-1.6,6.8s.1,2.7,1.8,3.2c9.9,2.7,19.8,3.5,29.8.7,6.6-1.8,11.7-5.7,13.9-12.4a36,36,0,0,0,1.9-10.2c.2-17.1.1-34.2.2-51.3C446.7,56,446.2,54.8,444.1,54.5Zm-8.9,41.2a3.5,3.5,0,0,1-1.6,2.5c-5.1,2.6-10.5,3.7-16.2,1.9S407.3,92,406.9,83.7a33.9,33.9,0,0,1,.8-9c1.9-8.5,8-13.3,16.8-13.2a100.4,100.4,0,0,1,10.8.9C435.3,73.8,435.3,84.7,435.2,95.7Z" fill="#ccc"/><path d="M310.9,83.6c-.8-6-1.3-12-2.8-17.8s-5.2-9-10.2-11.4a26.8,26.8,0,0,0-36.3,14.1,39.2,39.2,0,0,0-.5,27.8,23.3,23.3,0,0,0,14.5,15.3c9.7,3.7,19.5,2.9,29.2-.2a2.7,2.7,0,0,0,1.7-2.3c-.2-2.4-.8-4.7-1.1-6.5-6.2.6-11.7,1.6-17.2,1.7-8.6,0-14.1-4-16.4-11.3-.7-2.1-1-4.3-1.6-7h37.5C309.5,86.1,311.3,86.1,310.9,83.6Zm-11.6-6.5H270.9c.5-5.9,2.8-10.7,7.8-13.6s10.1-3,14.8.3S299.4,71.6,299.3,77.1Z" fill="#ccc"/><path d="M512.8,82.9c-.3-3.6-.2-7.2-.8-10.7-1.4-7.6-4.7-14.2-12.1-17.8a26.8,26.8,0,0,0-36.2,13.7c-3.8,9.3-3.8,18.7-.7,28.2a23.8,23.8,0,0,0,16,15.9c9.2,2.9,18.5,2.2,27.6-.7.8-.3,2-1.3,1.9-1.9-.2-2.6-.9-5.2-1.3-7.6-3.9.8-7.2,1.9-10.6,2.2C483,105.3,473.9,102,472.5,86h37.1C512,86.1,513.1,85.5,512.8,82.9Zm-39.9-5.8c.3-5.7,2.5-10.2,7.2-13.3s9.9-3.4,14.8-.4,6.3,8,6.4,13.7Z" fill="#ccc"/><path d="M66.6,128.6h-.1c-1.4-2-3.4-2.3-5.8-2.3H25.4a2.6,2.6,0,0,1-2-.8c-1.6-1.7-3.1-3.4-4.7-5.4H58.4c-1-1.4-1.7-2.5-3.6-2.4-12.3.1-24.6,0-36.9,0a2,2,0,0,1-1.9-.9c-1-1.7-2.2-3.4-3.4-5.3H52.5c-.4-.8-.8-1.3-1.1-1.9s-.9-.5-1.3-.5h-38a1.1,1.1,0,0,1-1.1-.5,60.6,60.6,0,0,1-2.7-5.7h40c1.3,3.6,1.3,3.6,5,3.6h85.4c1.8,0,1.6-.1,1,1.6s-2.7,3.5-5.7,3.5H53.4c-.5,0-.7.1-.4.7s1,1.6,1.6,2.4a.8.8,0,0,0,.8.5h78.4a2.6,2.6,0,0,1,1.5.2,48.4,48.4,0,0,1-3.3,4.6c-.4.4-.9.2-1.3.2H59a5.1,5.1,0,0,0,4.6,3.6h65a39.9,39.9,0,0,1-5.1,5,2.9,2.9,0,0,1-1.3.1H68.3C67.7,128.7,67.1,128.9,66.6,128.6Z" fill="#ccc"/><path d="M146.2,59c.1.3.3.7-.3.7H45.6c-1.7,0-1.7,0-2,1.7s-.3,1.9,1.6,1.9H145.6c1.1,0,1.6.3,1.6,1.4l.3,2.9c.1.6-.1.9-.7.8H42.6c-.4.6-1,.5-1.6.5H4.9c-.6,0-1.5.3-1.9-.5a3.7,3.7,0,0,1,1.5-.1H41.2c1.4,0,1.9-.7,1.7-2.1s-.2-.4-.5-.4H4.3c-1,0-1.3-.2-1.1-1.2s.5-2.9.7-4.3a.7.7,0,0,1,.9-.6H42.4l1.6-.2a1.9,1.9,0,0,1,1.4-.5H146.2Z" fill="#ccc"/><path d="M3,68.4H42.6v2.3c-.1.8,0,1.3,1,1.2a3.3,3.3,0,0,1,1,0H146.3c1.6,0,1.6,0,1.6,1.5a20.9,20.9,0,0,0,0,2.5c0,.8-.2,1.2-1.1,1.1H42.4c.1-2.6.1-2.6-2.5-2.6H3.8c-1.1.1-1.5-.3-1.3-1.3S2.5,69.9,3,68.4Z" fill="#ccc"/><path d="M42.5,77a22.6,22.6,0,0,1,.1,2.6c0,.7.4,1,1.1.9H146c1.7,0,1.7,0,1.5,1.7s0,2.5-.6,3.2-2.1.2-3.2.2H43.4a.2.2,0,0,1-.3,0h0c.1-2.4.1-2.4-2.2-2.4H4.6c-1.2,0-1.8-.1-1.7-1.5a19.4,19.4,0,0,0-.2-3.4c-.2-1.1.3-1.3,1.3-1.3H42.5Z" fill="#ccc"/><path d="M146.2,59a1.1,1.1,0,0,1-1,.5H44c.1-.2,0-.4.1-.5.3-1.8.3-1.8-1.5-1.8H4.6c.4-2,1.1-3.7,1.6-5.5s.7-.6,1.2-.6H44.8l1.6-.2a1.3,1.3,0,0,1,1.2-.5h93.7a5.2,5.2,0,0,1,2.5.3c.2.2.1.4-.2.4H48.3c-2.5,0-1.8-.4-2.6,2s-.5,1.6,1.2,1.6h96.8c1.1,0,1.7.3,1.8,1.5S146.1,58,146.2,59Z" fill="#ccc"/><path d="M43.1,85.6h.3c.4,3.5.4,3.5,3.9,3.5h98.3c.6,0,.9.2.6.8v.2c-.3,1.3-.3,3-1.2,3.8s-2.5.3-3.8.3H45c.1-.6-.2-1-.3-1.5s-.4-1-1.2-1H6c-1.1,0-1.6-.2-1.7-1.4s-.5-2.7-.8-4.1.1-.7.6-.7h39Z" fill="#ccc"/><path d="M45,94.2h.2c.9,3.5.9,3.5,4.5,3.5h93.7c.4,0,.7.1.4.6l-1.5,4a.6.6,0,0,1-.8.5H48c0-.6-.4-1.1-.5-1.7s-.6-.8-1.3-.8H8.6c-1,0-1.6-.2-1.8-1.2S6,96.5,5.6,95.2s-.1-1.1.8-1.1c11.3.1,22.5,0,33.8,0Z" fill="#ccc"/><path d="M135.2,33.5c.2.3-.1.3-.2.3H57c-1.6,0-2.7.3-3.3,1.8s-1,1.1-.8,1.6,1.2.2,1.8.2h81.7a2,2,0,0,1,2.1,1.3l1.6,3c.3.5.2.8-.4.8a4,4,0,0,0-1.1,0H51.4c-.6,0-1.3-.3-1.8.3a4.1,4.1,0,0,1-1.9.4h-36c-.6,0-1.3.2-1.7-.5s.8-.2,1.3-.2H47.8c2.2,0,2.2,0,3.1-2.4H11.2a65.9,65.9,0,0,1,3.6-5.9c.3-.5.8-.3,1.2-.3H55.1c.3-.5.8-.5,1.3-.6a8.5,8.5,0,0,1,1.6,0h74.3A7,7,0,0,1,135.2,33.5Z" fill="#ccc"/><path d="M10,42.6H47.7a4,4,0,0,1,1.9.2,15.4,15.4,0,0,1-.8,1.9c-.6,1.3-.6,1.3.8,1.3h91c1.2,0,1.8.3,2.1,1.5s.9,2.1,1.1,3.2a3.8,3.8,0,0,1-2.1.2H46.4c0-.7.5-1.4.6-2.3H8.5c-1.3,0-1.3,0-.8-1.2A42.3,42.3,0,0,1,10,42.6Z" fill="#ccc"/><path d="M135.2,33.5a5,5,0,0,1-2.1.2h-78c0-.9.9-1.4,1.2-2.3H16.6a45.7,45.7,0,0,1,5.1-6.1,2.5,2.5,0,0,1,1.2-.1c12.4,0,24.8-.1,37.2,0,.4,0,1-.4,1.2.3s-1.8,1.9-2.5,3.1a3.9,3.9,0,0,0,1.5.1h69.9a2.6,2.6,0,0,1,2.6,1.3A41.5,41.5,0,0,1,135.2,33.5Z" fill="#ccc"/><path d="M61.3,25.6a4.6,4.6,0,0,0-2-.2H21.7c.4-.4.9-.2,1.4-.2h36c2,0,3.5-.4,4.5-2.3H24.4c0-.7.5-.9.8-1.2A61.9,61.9,0,0,1,30.7,17a1.8,1.8,0,0,1,1.2-.5H71l-3.9,3.3c.6.4,1.1.2,1.6.2H122a3.1,3.1,0,0,1,2.6,1l3.9,3.9c-.6.4-1.1.2-1.6.2H63C62.4,25.3,61.8,25.1,61.3,25.6Z" fill="#ccc"/><path d="M66.6,128.6h56.9a3.7,3.7,0,0,1-1.5.1H67.4l-.2.3c1.9,1.3,3.1,3.3,6,3.3,14.7-.1,29.5,0,44.2,0h1.4a40.9,40.9,0,0,1-7.1,4.9,2.8,2.8,0,0,1-1.3.1H80.7a5,5,0,0,0-1.7.1c-.4.2-.6-.1-.8-.4l-.6-.3c-1.9-1.7-4.2-1.9-6.6-1.9H36a3.6,3.6,0,0,1-2.2-.7c-2.3-1.7-4.5-3.4-6.7-5.3a1.9,1.9,0,0,1,1.4-.3H66.6Z" fill="#ccc"/><path d="M119,16.5H71.3l2.9-2.3H35.1c-.2-.5.2-.5.4-.7a91.2,91.2,0,0,1,9.7-5.3,2.8,2.8,0,0,1,1.3-.3H85.6c-2.2,1.2-4.3,2-6.3,3.3a2.4,2.4,0,0,0,1.4.2h29.6a4.3,4.3,0,0,1,2.5.7A57.8,57.8,0,0,1,119,16.5Z" fill="#ccc"/><path d="M78.2,137a5.5,5.5,0,0,0,1.8.2h31.7a3.8,3.8,0,0,1-1.5.1H79.1a17.4,17.4,0,0,0,3.1,1.8,12.2,12.2,0,0,0,7.3,1.8H104a28.3,28.3,0,0,1-6,2.5,6.2,6.2,0,0,1-5.3.2,3.2,3.2,0,0,0-1.4-.1H53.9A9.3,9.3,0,0,1,51,143a77.1,77.1,0,0,1-11.3-5.2l-.8-.6H76.8C77.3,137.2,77.8,137.4,78.2,137Z" fill="#ccc"/><path d="M52.8,5.2C70.1,0,87.2.6,104,7.9H86.3V7.7L91,5.8H52.8Z" fill="#ccc"/><path d="M63,145.8H87.5A63.1,63.1,0,0,1,63,145.8Z" fill="#ccc"/></svg>