<svg width="20" height="20" viewBox="0 0 20 20" fill="none" xmlns="http://www.w3.org/2000/svg">
<path d="M7.4375 14.4062C7.4375 14.4896 7.375 14.5417 7.25 14.5625C7.14583 14.5625 7.09375 14.5208 7.09375 14.4375C7.09375 14.3542 7.14583 14.3125 7.25 14.3125C7.3125 14.3125 7.35417 14.3229 7.375 14.3438C7.41667 14.3646 7.4375 14.3854 7.4375 14.4062ZM6.46875 14.2812C6.44792 14.3021 6.44792 14.3333 6.46875 14.375C6.51042 14.3958 6.55208 14.4167 6.59375 14.4375C6.63542 14.4583 6.67708 14.4583 6.71875 14.4375C6.76042 14.4167 6.78125 14.3854 6.78125 14.3438C6.80208 14.2812 6.76042 14.2396 6.65625 14.2188C6.55208 14.1771 6.48958 14.1979 6.46875 14.2812ZM7.84375 14.2188C7.73958 14.2396 7.6875 14.2812 7.6875 14.3438C7.70833 14.4062 7.72917 14.4479 7.75 14.4688C7.79167 14.4688 7.83333 14.4688 7.875 14.4688C7.97917 14.4271 8.02083 14.375 8 14.3125C8 14.25 7.94792 14.2188 7.84375 14.2188ZM9.90625 2.25C8.46875 2.25 7.16667 2.58333 6 3.25C4.83333 3.91667 3.91667 4.83333 3.25 6C2.58333 7.16667 2.25 8.45833 2.25 9.875C2.25 11.6042 2.73958 13.1562 3.71875 14.5312C4.69792 15.8854 5.97917 16.8229 7.5625 17.3438C7.72917 17.3854 7.85417 17.3646 7.9375 17.2812C8.04167 17.1979 8.09375 17.0938 8.09375 16.9688L8.0625 15.0625L7.71875 15.0938C7.44792 15.1354 7.1875 15.1458 6.9375 15.125C6.58333 15.0833 6.28125 14.9896 6.03125 14.8438C5.73958 14.6771 5.54167 14.4375 5.4375 14.125L5.3125 13.875C5.22917 13.6875 5.125 13.5208 5 13.375C4.85417 13.1875 4.70833 13.0521 4.5625 12.9688L4.40625 12.8438C4.30208 12.7604 4.25 12.6875 4.25 12.625C4.27083 12.5417 4.39583 12.5 4.625 12.5L4.84375 12.5312C5.01042 12.5938 5.16667 12.6667 5.3125 12.75C5.52083 12.8958 5.6875 13.0833 5.8125 13.3125C6.10417 13.8333 6.52083 14.1146 7.0625 14.1562C7.39583 14.1979 7.73958 14.1354 8.09375 13.9688C8.15625 13.5104 8.32292 13.1562 8.59375 12.9062C7.84375 12.8229 7.28125 12.7188 6.90625 12.5938C6.32292 12.3854 5.88542 12.0625 5.59375 11.625C5.26042 11.1042 5.09375 10.375 5.09375 9.4375C5.09375 9.04167 5.14583 8.71875 5.25 8.46875C5.375 8.19792 5.5625 7.90625 5.8125 7.59375C5.72917 7.40625 5.6875 7.16667 5.6875 6.875C5.64583 6.41667 5.71875 5.95833 5.90625 5.5C6.09375 5.4375 6.375 5.47917 6.75 5.625C7.02083 5.72917 7.32292 5.875 7.65625 6.0625L8.0625 6.34375C8.6875 6.15625 9.33333 6.0625 10 6.0625C10.6875 6.0625 11.3542 6.15625 12 6.34375L12.4062 6.0625C12.7396 5.875 13.0312 5.72917 13.2812 5.625C13.6562 5.47917 13.9479 5.4375 14.1562 5.5C14.3229 5.95833 14.3958 6.41667 14.375 6.875C14.3542 7.16667 14.3021 7.41667 14.2188 7.625C14.5104 7.9375 14.7083 8.19792 14.8125 8.40625C14.9583 8.69792 15.0312 9.04167 15.0312 9.4375C15.0312 10.375 14.8542 11.1146 14.5 11.6562C14.1875 12.0729 13.7396 12.3854 13.1562 12.5938C12.7812 12.7188 12.2083 12.8229 11.4375 12.9062C11.7917 13.1979 11.9688 13.6771 11.9688 14.3438V16.9688C11.9688 17.0938 12.0104 17.1979 12.0938 17.2812C12.1979 17.3646 12.3333 17.3854 12.5 17.3438C14.0625 16.8229 15.3229 15.8854 16.2812 14.5312C17.2604 13.1562 17.75 11.6042 17.75 9.875C17.75 8.45833 17.3958 7.15625 16.6875 5.96875C16 4.82292 15.0521 3.91667 13.8438 3.25C12.6354 2.58333 11.3229 2.25 9.90625 2.25ZM5.28125 13.0312C5.23958 13.0729 5.25 13.125 5.3125 13.1875C5.375 13.25 5.42708 13.2604 5.46875 13.2188C5.51042 13.1771 5.5 13.125 5.4375 13.0625C5.375 13 5.32292 12.9896 5.28125 13.0312ZM4.9375 12.7812C4.91667 12.8229 4.9375 12.8646 5 12.9062C5.08333 12.9479 5.13542 12.9479 5.15625 12.9062C5.17708 12.8438 5.15625 12.8021 5.09375 12.7812C5.03125 12.7396 4.97917 12.7396 4.9375 12.7812ZM5.96875 13.875C5.94792 13.8958 5.9375 13.9271 5.9375 13.9688C5.9375 14.0104 5.95833 14.0521 6 14.0938C6.08333 14.1771 6.15625 14.1875 6.21875 14.125C6.23958 14.1042 6.23958 14.0729 6.21875 14.0312C6.21875 13.9896 6.19792 13.9583 6.15625 13.9375C6.13542 13.8958 6.10417 13.875 6.0625 13.875C6.02083 13.8542 5.98958 13.8542 5.96875 13.875ZM5.59375 13.4375C5.55208 13.4583 5.55208 13.5208 5.59375 13.625C5.63542 13.6458 5.66667 13.6667 5.6875 13.6875C5.72917 13.7083 5.76042 13.7083 5.78125 13.6875C5.84375 13.6458 5.84375 13.5833 5.78125 13.5C5.76042 13.4583 5.72917 13.4375 5.6875 13.4375C5.66667 13.4167 5.63542 13.4167 5.59375 13.4375Z" fill="black"/>
</svg>
