<svg width="20" height="20" viewBox="0 0 20 20" fill="none" xmlns="http://www.w3.org/2000/svg">
<path d="M16.9688 5.09375L14.8438 15.0312C14.7604 15.3854 14.6146 15.6146 14.4062 15.7188C14.2188 15.8021 13.9792 15.7604 13.6875 15.5938L10.4688 13.2188L8.90625 14.7188C8.80208 14.8229 8.71875 14.8958 8.65625 14.9375C8.55208 15 8.41667 15.0312 8.25 15.0312L8.5 11.75L14.4688 6.34375C14.5521 6.28125 14.5729 6.22917 14.5312 6.1875C14.5104 6.125 14.4479 6.10417 14.3438 6.125C14.2604 6.125 14.1667 6.15625 14.0625 6.21875L6.6875 10.875L3.5 9.875C3.14583 9.77083 2.97917 9.61458 3 9.40625C3.02083 9.19792 3.23958 9.01042 3.65625 8.84375L16.0625 4.0625C16.375 3.95833 16.625 4 16.8125 4.1875C17 4.35417 17.0521 4.65625 16.9688 5.09375Z" fill="black"/>
</svg>
