<svg width="163" height="41" viewBox="0 0 163 41" fill="none" xmlns="http://www.w3.org/2000/svg">
<path d="M23.691 21.7679C23.7256 19.0661 25.171 16.5095 27.4639 15.0944C26.0174 13.0205 23.5946 11.7056 21.0739 11.6264C18.3854 11.3431 15.779 13.2414 14.409 13.2414C13.0125 13.2414 10.9031 11.6545 8.63166 11.7014C5.67095 11.7975 2.91082 13.4873 1.47038 16.0859C-1.62602 21.4677 0.683612 29.3772 3.6497 33.7275C5.13369 35.8577 6.86806 38.2372 9.13744 38.1529C11.3582 38.0604 12.1876 36.7312 14.8682 36.7312C17.5239 36.7312 18.302 38.1529 20.6175 38.0992C23.0004 38.0604 24.5018 35.9595 25.9337 33.8091C27 32.2913 27.8204 30.6137 28.3648 28.8386C25.5644 27.6496 23.6942 24.8204 23.691 21.7679Z" fill="white"/>
<path d="M19.3175 8.76543C20.6168 7.19961 21.2569 5.18701 21.1019 3.15503C19.1169 3.36433 17.2833 4.31674 15.9664 5.82249C14.6787 7.29368 14.0086 9.27087 14.1353 11.2252C16.121 11.2457 18.0732 10.3191 19.3175 8.76543Z" fill="white"/>
<path d="M116.894 16.7396V20.4926H114.551V22.9538H116.894V31.3165C116.894 34.1721 118.181 35.3143 121.418 35.3143C121.987 35.3143 122.529 35.2463 123.003 35.1647V32.7307C122.597 32.7715 122.339 32.7987 121.892 32.7987C120.443 32.7987 119.806 32.1188 119.806 30.5687V22.9538H123.003V20.4926H119.806V16.7396H116.894Z" fill="white"/>
<path d="M131.25 35.5183C135.557 35.5183 138.198 32.6219 138.198 27.8219C138.198 23.049 135.543 20.1391 131.25 20.1391C126.942 20.1391 124.287 23.049 124.287 27.8219C124.287 32.6219 126.929 35.5183 131.25 35.5183ZM131.25 32.9211C128.717 32.9211 127.294 31.0582 127.294 27.8219C127.294 24.6128 128.717 22.7363 131.25 22.7363C133.769 22.7363 135.205 24.6128 135.205 27.8219C135.205 31.0446 133.769 32.9211 131.25 32.9211Z" fill="white"/>
<path d="M140.458 35.2327H143.37V26.4893C143.37 24.4088 144.928 23.0082 147.136 23.0082C147.65 23.0082 148.517 23.1034 148.761 23.185V20.3023C148.45 20.2207 147.894 20.1799 147.461 20.1799C145.537 20.1799 143.898 21.2405 143.479 22.6955H143.262V20.4246H140.458V35.2327Z" fill="white"/>
<path d="M155.992 22.6275C158.146 22.6275 159.554 24.1369 159.622 26.4621H152.172C152.335 24.1505 153.838 22.6275 155.992 22.6275ZM159.609 31.235C159.067 32.3908 157.861 33.0299 156.1 33.0299C153.771 33.0299 152.267 31.3845 152.172 28.7873V28.6242H162.588V27.6043C162.588 22.9538 160.11 20.1391 156.006 20.1391C151.847 20.1391 149.206 23.1442 149.206 27.8763C149.206 32.6083 151.793 35.5183 156.019 35.5183C159.392 35.5183 161.749 33.8865 162.412 31.235H159.609Z" fill="white"/>
<path d="M97.7965 29.7643C98.0211 33.4005 101.039 35.726 105.532 35.726C110.333 35.726 113.338 33.2878 113.338 29.3979C113.338 26.3395 111.625 24.6483 107.469 23.6758L105.237 23.1262C102.598 22.506 101.531 21.6745 101.531 20.2228C101.531 18.3906 103.187 17.1927 105.672 17.1927C108.031 17.1927 109.659 18.3625 109.954 20.2369H113.015C112.832 16.8121 109.828 14.4021 105.714 14.4021C101.292 14.4021 98.344 16.8121 98.344 20.4342C98.344 23.4221 100.015 25.1979 103.679 26.0577L106.29 26.6919C108.972 27.3261 110.151 28.2563 110.151 29.8066C110.151 31.6106 108.298 32.9213 105.771 32.9213C103.061 32.9213 101.18 31.6952 100.913 29.7643H97.7965Z" fill="white"/>
<path d="M67.6293 20.1799C65.6247 20.1799 63.8909 21.1861 62.9969 22.8723H62.7802V20.4246H59.9764V40.1552H62.8886V32.9891H63.1188C63.8909 34.5528 65.5569 35.4775 67.6564 35.4775C71.3813 35.4775 73.7517 32.5267 73.7517 27.8219C73.7517 23.117 71.3813 20.1799 67.6293 20.1799ZM66.8031 32.8531C64.365 32.8531 62.8344 30.9222 62.8344 27.8355C62.8344 24.7352 64.365 22.8043 66.8166 22.8043C69.2818 22.8043 70.7582 24.6944 70.7582 27.8219C70.7582 30.963 69.2818 32.8531 66.8031 32.8531Z" fill="white"/>
<path d="M83.9418 20.1799C81.9372 20.1799 80.2034 21.1861 79.3094 22.8723H79.0927V20.4246H76.2889V40.1552H79.2011V32.9891H79.4313C80.2034 34.5528 81.8694 35.4775 83.9689 35.4775C87.6938 35.4775 90.0642 32.5267 90.0642 27.8219C90.0642 23.117 87.6938 20.1799 83.9418 20.1799ZM83.1156 32.8531C80.6775 32.8531 79.1469 30.9222 79.1469 27.8355C79.1469 24.7352 80.6775 22.8043 83.1291 22.8043C85.5943 22.8043 87.0707 24.6944 87.0707 27.8219C87.0707 30.963 85.5943 32.8531 83.1156 32.8531Z" fill="white"/>
<path d="M54.7514 35.2327H58.0927L50.7784 14.8954H47.395L40.0807 35.2327H43.3097L45.1768 29.8348H52.8983L54.7514 35.2327ZM48.9253 18.588H49.1639L52.0981 27.1852H45.9771L48.9253 18.588Z" fill="white"/>
<path d="M40 0.550564V8.5894H42.8912C45.2773 8.5894 46.6591 7.1131 46.6591 4.54491C46.6591 2.01572 45.2662 0.550564 42.8912 0.550564H40ZM41.243 1.68703H42.7524C44.4117 1.68703 45.3939 2.74551 45.3939 4.56162C45.3939 6.4056 44.4283 7.45293 42.7524 7.45293H41.243V1.68703Z" fill="white"/>
<path d="M50.891 8.70638C52.6556 8.70638 53.7377 7.51978 53.7377 5.55325C53.7377 3.59786 52.6501 2.40568 50.891 2.40568C49.1263 2.40568 48.0387 3.59786 48.0387 5.55325C48.0387 7.51978 49.1208 8.70638 50.891 8.70638ZM50.891 7.64234C49.8533 7.64234 49.2706 6.87912 49.2706 5.55325C49.2706 4.23851 49.8533 3.46972 50.891 3.46972C51.9231 3.46972 52.5114 4.23851 52.5114 5.55325C52.5114 6.87355 51.9231 7.64234 50.891 7.64234Z" fill="white"/>
<path d="M62.9528 2.52267H61.7597L60.6832 7.1521H60.5888L59.3458 2.52267H58.2027L56.9596 7.1521H56.8708L55.7887 2.52267H54.579L56.2438 8.5894H57.4702L58.7132 4.12152H58.8075L60.0561 8.5894H61.2936L62.9528 2.52267Z" fill="white"/>
<path d="M64.3268 8.5894H65.5199V5.04072C65.5199 4.09367 66.0804 3.50315 66.9627 3.50315C67.8451 3.50315 68.2668 3.98782 68.2668 4.96273V8.5894H69.4599V4.6619C69.4599 3.21903 68.7163 2.40568 67.3678 2.40568C66.4577 2.40568 65.8584 2.81236 65.5643 3.48644H65.4755V2.52267H64.3268V8.5894Z" fill="white"/>
<path d="M71.3389 8.5894H72.532V0.155029H71.3389V8.5894Z" fill="white"/>
<path d="M77.0191 8.70638C78.7837 8.70638 79.8659 7.51978 79.8659 5.55325C79.8659 3.59786 78.7782 2.40568 77.0191 2.40568C75.2544 2.40568 74.1668 3.59786 74.1668 5.55325C74.1668 7.51978 75.2489 8.70638 77.0191 8.70638ZM77.0191 7.64234C75.9814 7.64234 75.3987 6.87912 75.3987 5.55325C75.3987 4.23851 75.9814 3.46972 77.0191 3.46972C78.0512 3.46972 78.6395 4.23851 78.6395 5.55325C78.6395 6.87355 78.0512 7.64234 77.0191 7.64234Z" fill="white"/>
<path d="M83.4207 7.68134C82.7714 7.68134 82.2998 7.36379 82.2998 6.81784C82.2998 6.28304 82.6771 5.99892 83.5095 5.94321L84.9856 5.84851V6.35546C84.9856 7.10753 84.3197 7.68134 83.4207 7.68134ZM83.1155 8.68967C83.909 8.68967 84.5694 8.34428 84.9301 7.73705H85.0244V8.5894H86.1731V4.44463C86.1731 3.16332 85.3186 2.40568 83.8036 2.40568C82.4329 2.40568 81.4563 3.07419 81.3342 4.11595H82.4884C82.6216 3.68699 83.0822 3.44187 83.7481 3.44187C84.5639 3.44187 84.9856 3.80398 84.9856 4.44463V4.9683L83.3486 5.06301C81.9113 5.15214 81.1011 5.78165 81.1011 6.87355C81.1011 7.98217 81.9501 8.68967 83.1155 8.68967Z" fill="white"/>
<path d="M90.2219 8.68967C91.0543 8.68967 91.759 8.29414 92.1197 7.6312H92.2141V8.5894H93.3572V0.155029H92.1641V3.48644H92.0753C91.7479 2.81793 91.0487 2.42239 90.2219 2.42239C88.6958 2.42239 87.7136 3.63685 87.7136 5.55325C87.7136 7.47521 88.6847 8.68967 90.2219 8.68967ZM90.5604 3.49758C91.5592 3.49758 92.1863 4.29422 92.1863 5.55882C92.1863 6.82899 91.5648 7.61449 90.5604 7.61449C89.5504 7.61449 88.9455 6.84013 88.9455 5.55325C88.9455 4.27751 89.556 3.49758 90.5604 3.49758Z" fill="white"/>
<path d="M101.094 8.70638C102.859 8.70638 103.941 7.51978 103.941 5.55325C103.941 3.59786 102.853 2.40568 101.094 2.40568C99.3293 2.40568 98.2417 3.59786 98.2417 5.55325C98.2417 7.51978 99.3238 8.70638 101.094 8.70638ZM101.094 7.64234C100.056 7.64234 99.4736 6.87912 99.4736 5.55325C99.4736 4.23851 100.056 3.46972 101.094 3.46972C102.126 3.46972 102.714 4.23851 102.714 5.55325C102.714 6.87355 102.126 7.64234 101.094 7.64234Z" fill="white"/>
<path d="M105.52 8.5894H106.713V5.04072C106.713 4.09367 107.274 3.50315 108.156 3.50315C109.038 3.50315 109.46 3.98782 109.46 4.96273V8.5894H110.653V4.6619C110.653 3.21903 109.91 2.40568 108.561 2.40568C107.651 2.40568 107.052 2.81236 106.758 3.48644H106.669V2.52267H105.52V8.5894Z" fill="white"/>
<path d="M116.148 1.01295V2.55052H115.188V3.55886H116.148V6.98497C116.148 8.15486 116.675 8.62282 118.001 8.62282C118.235 8.62282 118.456 8.59497 118.651 8.56154V7.56435C118.484 7.58106 118.379 7.5922 118.196 7.5922C117.602 7.5922 117.341 7.31366 117.341 6.67857V3.55886H118.651V2.55052H117.341V1.01295H116.148Z" fill="white"/>
<path d="M120.252 8.5894H121.445V5.04629C121.445 4.12709 121.989 3.50872 122.966 3.50872C123.809 3.50872 124.259 3.99896 124.259 4.9683V8.5894H125.452V4.67304C125.452 3.23017 124.658 2.41125 123.371 2.41125C122.461 2.41125 121.823 2.81793 121.529 3.49758H121.434V0.155029H120.252V8.5894Z" fill="white"/>
<path d="M129.756 3.42516C130.638 3.42516 131.215 4.04353 131.243 4.99616H128.191C128.258 4.0491 128.874 3.42516 129.756 3.42516ZM131.238 6.95155C131.016 7.42507 130.522 7.68691 129.8 7.68691C128.846 7.68691 128.23 7.01283 128.191 5.94878V5.88193H132.458V5.46411C132.458 3.55886 131.443 2.40568 129.761 2.40568C128.058 2.40568 126.976 3.63685 126.976 5.57553C126.976 7.51421 128.036 8.70638 129.767 8.70638C131.149 8.70638 132.114 8.03788 132.386 6.95155H131.238Z" fill="white"/>
</svg>
