<svg width="28" height="28" viewBox="0 0 28 28" fill="none" xmlns="http://www.w3.org/2000/svg">
<path d="M13.1031 23.494C13.0548 23.6839 12.9448 23.8524 12.7904 23.9731C12.636 24.0938 12.446 24.1599 12.25 24.1611C12.1795 24.1609 12.1094 24.1498 12.0422 24.1283L8.73909 23.308C8.47116 23.2404 8.22353 23.109 8.01721 22.9252L5.55627 20.7815C5.47009 20.7068 5.39947 20.6158 5.34843 20.5138C5.29739 20.4119 5.26694 20.3008 5.25882 20.1871C5.25069 20.0733 5.26505 19.9591 5.30108 19.8509C5.3371 19.7427 5.39408 19.6426 5.46877 19.5565C5.54346 19.4703 5.63439 19.3996 5.73638 19.3486C5.83836 19.2976 5.9494 19.2671 6.06315 19.259C6.1769 19.2509 6.29114 19.2652 6.39934 19.3013C6.50755 19.3373 6.60759 19.3943 6.69377 19.469L9.16565 21.6127L12.4578 22.433C12.683 22.49 12.8768 22.6331 12.9975 22.8315C13.1182 23.0299 13.1561 23.2678 13.1031 23.494ZM27.6063 13.0815C27.5343 13.3017 27.4188 13.5053 27.2666 13.6801C27.1145 13.8548 26.9287 13.9972 26.7203 14.0986L24.1719 15.3783L22.5422 17.2924H22.5203C22.5203 17.3033 22.5094 17.3033 22.5094 17.3143H22.4985L18.4735 21.3393C18.1399 21.6653 17.693 21.8496 17.2266 21.8533C17.0863 21.852 16.9468 21.8337 16.811 21.7986L10.4672 20.2346C10.2277 20.1787 10.0036 20.0704 9.81096 19.9174L3.90471 15.3018L1.27971 13.9893C0.860401 13.7768 0.541991 13.4072 0.393773 12.9611C0.323701 12.7401 0.298253 12.5074 0.318907 12.2764C0.339561 12.0455 0.405906 11.8209 0.514085 11.6158L3.20471 6.46426C3.41734 6.05886 3.77948 5.7522 4.21438 5.60928C4.64927 5.46636 5.12273 5.49841 5.5344 5.69864L7.9844 6.92364L13.311 5.37051C13.7103 5.26171 14.1347 5.29258 14.5141 5.45801L18.1235 7.09864H19.9172L22.4656 5.81895C22.8755 5.61503 23.349 5.57983 23.7845 5.72092C24.22 5.862 24.5829 6.16812 24.7953 6.57364L27.486 11.7252C27.5945 11.9322 27.6609 12.1585 27.6816 12.3913C27.7022 12.6241 27.6766 12.8586 27.6063 13.0815ZM20.5297 16.8221L17.0735 14.3065L16.1875 14.9736C15.4288 15.5383 14.5083 15.8432 13.5625 15.8432C12.6168 15.8432 11.6962 15.5383 10.9375 14.9736L10.3469 14.5252C10.1451 14.3758 9.9781 14.1844 9.8573 13.9643C9.73651 13.7442 9.66482 13.5005 9.64715 13.25C9.62948 12.9996 9.66626 12.7483 9.75496 12.5134C9.84365 12.2785 9.98216 12.0655 10.161 11.8893L14.4375 7.60176L14.6344 7.4377L13.7922 7.05489L8.46565 8.60801L5.49065 14.3174L10.8938 18.5393L17.2266 20.1252L20.5297 16.8221ZM22.575 14.558L19.6 8.84864H15.6735L11.3969 13.1252L11.9875 13.5736C12.444 13.9095 12.9958 14.0906 13.5625 14.0906C14.1292 14.0906 14.6811 13.9095 15.1375 13.5736L16.5375 12.5236C16.6868 12.411 16.8683 12.3492 17.0553 12.3472C17.2422 12.3453 17.425 12.4033 17.5766 12.5127L21.7328 15.5315L22.575 14.558Z" fill="white"/>
</svg>
