<svg width="40" height="40" viewBox="0 0 40 40" fill="none" xmlns="http://www.w3.org/2000/svg">
<path d="M33.125 4.375H6.875C6.21196 4.375 5.57607 4.63839 5.10723 5.10723C4.63839 5.57607 4.375 6.21196 4.375 6.875V33.125C4.375 33.788 4.63839 34.4239 5.10723 34.8928C5.57607 35.3616 6.21196 35.625 6.875 35.625H33.125C33.788 35.625 34.4239 35.3616 34.8928 34.8928C35.3616 34.4239 35.625 33.788 35.625 33.125V6.875C35.625 6.21196 35.3616 5.57607 34.8928 5.10723C34.4239 4.63839 33.788 4.375 33.125 4.375ZM15 27.5C15 27.8315 14.8683 28.1495 14.6339 28.3839C14.3995 28.6183 14.0815 28.75 13.75 28.75C13.4185 28.75 13.1005 28.6183 12.8661 28.3839C12.6317 28.1495 12.5 27.8315 12.5 27.5V17.5C12.5 17.1685 12.6317 16.8505 12.8661 16.6161C13.1005 16.3817 13.4185 16.25 13.75 16.25C14.0815 16.25 14.3995 16.3817 14.6339 16.6161C14.8683 16.8505 15 17.1685 15 17.5V27.5ZM13.75 14.375C13.3792 14.375 13.0166 14.265 12.7083 14.059C12.4 13.853 12.1596 13.5601 12.0177 13.2175C11.8758 12.8749 11.8387 12.4979 11.911 12.1342C11.9834 11.7705 12.162 11.4364 12.4242 11.1742C12.6864 10.912 13.0205 10.7334 13.3842 10.661C13.7479 10.5887 14.1249 10.6258 14.4675 10.7677C14.8101 10.9096 15.103 11.15 15.309 11.4583C15.515 11.7666 15.625 12.1292 15.625 12.5C15.625 12.9973 15.4275 13.4742 15.0758 13.8258C14.7242 14.1775 14.2473 14.375 13.75 14.375V14.375ZM28.75 27.5C28.75 27.8315 28.6183 28.1495 28.3839 28.3839C28.1495 28.6183 27.8315 28.75 27.5 28.75C27.1685 28.75 26.8505 28.6183 26.6161 28.3839C26.3817 28.1495 26.25 27.8315 26.25 27.5V21.875C26.25 21.0462 25.9208 20.2513 25.3347 19.6653C24.7487 19.0792 23.9538 18.75 23.125 18.75C22.2962 18.75 21.5013 19.0792 20.9153 19.6653C20.3292 20.2513 20 21.0462 20 21.875V27.5C20 27.8315 19.8683 28.1495 19.6339 28.3839C19.3995 28.6183 19.0815 28.75 18.75 28.75C18.4185 28.75 18.1005 28.6183 17.8661 28.3839C17.6317 28.1495 17.5 27.8315 17.5 27.5V17.5C17.4991 17.1924 17.6117 16.8952 17.8163 16.6654C18.0208 16.4356 18.3029 16.2893 18.6085 16.2545C18.9142 16.2197 19.2219 16.2988 19.4729 16.4767C19.7238 16.6546 19.9004 16.9188 19.9688 17.2187C20.8146 16.6454 21.8006 16.3133 22.8209 16.258C23.8412 16.2028 24.8574 16.4265 25.7601 16.9052C26.6629 17.3839 27.4182 18.0995 27.945 18.975C28.4717 19.8506 28.75 20.8532 28.75 21.875V27.5Z" fill="#2595E6"/>
</svg>
