<svg width="20" height="20" viewBox="0 0 20 20" fill="none" xmlns="http://www.w3.org/2000/svg">
<path d="M12.2812 10.5938C12.2812 10.8438 12.1979 11.0625 12.0312 11.25C11.8854 11.4167 11.6979 11.5 11.4688 11.5C11.2396 11.5 11.0417 11.4167 10.875 11.25C10.7292 11.0625 10.6562 10.8438 10.6562 10.5938C10.6562 10.3438 10.7292 10.1354 10.875 9.96875C11.0417 9.80208 11.2396 9.71875 11.4688 9.71875C11.6979 9.71875 11.8854 9.80208 12.0312 9.96875C12.1979 10.1354 12.2812 10.3438 12.2812 10.5938ZM8.5625 9.71875C8.33333 9.71875 8.13542 9.80208 7.96875 9.96875C7.82292 10.1354 7.75 10.3438 7.75 10.5938C7.75 10.8438 7.82292 11.0625 7.96875 11.25C8.13542 11.4167 8.33333 11.5 8.5625 11.5C8.79167 11.5 8.97917 11.4167 9.125 11.25C9.29167 11.0625 9.375 10.8438 9.375 10.5938C9.375 10.3438 9.29167 10.1354 9.125 9.96875C8.97917 9.80208 8.79167 9.71875 8.5625 9.71875ZM17 4.65625V19L16.2188 18.3125C15.5729 17.7292 14.7917 17.0208 13.875 16.1875L13.2812 15.625L13.7188 17.125H4.625C4.1875 17.125 3.80208 16.9688 3.46875 16.6562C3.15625 16.3229 3 15.9271 3 15.4688V4.65625C3 4.19792 3.15625 3.8125 3.46875 3.5C3.80208 3.16667 4.1875 3 4.625 3H15.375C15.8125 3 16.1875 3.16667 16.5 3.5C16.8333 3.8125 17 4.19792 17 4.65625ZM14.7188 12.2188C14.7188 11.1562 14.5312 10.0625 14.1562 8.9375C13.9479 8.375 13.75 7.91667 13.5625 7.5625C13.0833 7.20833 12.5625 6.95833 12 6.8125C11.7292 6.75 11.5 6.71875 11.3125 6.71875L11.2188 6.84375C11.7812 7.03125 12.2812 7.26042 12.7188 7.53125C12.9271 7.65625 13.0833 7.77083 13.1875 7.875C12.2708 7.35417 11.2812 7.08333 10.2188 7.0625C9.15625 7.04167 8.15625 7.22917 7.21875 7.625L6.75 7.875L6.96875 7.6875C7.17708 7.54167 7.40625 7.40625 7.65625 7.28125C8.03125 7.09375 8.42708 6.9375 8.84375 6.8125L8.78125 6.71875L8.4375 6.75C8.16667 6.79167 7.89583 6.86458 7.625 6.96875C7.22917 7.11458 6.86458 7.3125 6.53125 7.5625L6.21875 8.21875C5.98958 8.73958 5.8125 9.29167 5.6875 9.875C5.47917 10.6875 5.375 11.4688 5.375 12.2188L5.5 12.4062C5.625 12.5521 5.77083 12.6875 5.9375 12.8125C6.16667 13 6.41667 13.1354 6.6875 13.2188C7.04167 13.3646 7.41667 13.4375 7.8125 13.4375L8.34375 12.7812C8.05208 12.6979 7.78125 12.5729 7.53125 12.4062C7.36458 12.2812 7.21875 12.1562 7.09375 12.0312L6.9375 11.8438L7.28125 12.0312C7.98958 12.4271 8.77083 12.6667 9.625 12.75C10.5625 12.8125 11.4479 12.6667 12.2812 12.3125C12.5938 12.2083 12.8958 12.0521 13.1875 11.8438L13.0625 12.0312C12.9167 12.1771 12.7604 12.3021 12.5938 12.4062C12.3438 12.5729 12.0625 12.7083 11.75 12.8125L12.2812 13.4375C12.6771 13.4375 13.0521 13.3646 13.4062 13.2188C13.6771 13.1354 13.9271 13 14.1562 12.8125C14.3229 12.6875 14.4688 12.5521 14.5938 12.4062L14.7188 12.2188Z" fill="black"/>
</svg>
