<?xml version="1.0" encoding="UTF-8"?>
<svg width="247px" height="64px" viewBox="0 0 247 64" version="1.1" xmlns="http://www.w3.org/2000/svg" xmlns:xlink="http://www.w3.org/1999/xlink">
    <title>Group 3</title>
    <defs>
        <rect id="path-1" x="0" y="0" width="246.307" height="63.704"></rect>
        <path d="M35.525,3.55271368e-18 C45.5717777,3.27854149 52.9451757,11.8950975 54.6315097,22.3278754 C56.3178437,32.7606533 52.0345261,43.2613782 43.5322512,49.5381527 C35.0299762,55.8149272 23.7335144,56.8159194 14.26,52.132 C7.50990344,48.8053583 2.37394987,42.9130581 0,35.772 C2.03685224,51.6978846 15.5644822,63.6460076 31.62,63.7 L31.737,63.7 C48.6212841,63.6533792 62.5580784,50.4843605 63.5603567,33.6297865 C64.562635,16.7752126 52.2847661,2.04730626 35.525,3.55271368e-18 L35.525,3.55271368e-18 Z" id="path-3"></path>
        <rect id="path-5" x="0" y="0" width="246.307" height="63.704"></rect>
    </defs>
    <g id="current" stroke="none" stroke-width="1" fill="none" fill-rule="evenodd">
        <g id="moonwell-artemis-colors" transform="translate(0.000000, 0.013474)">
            <g id="Group_7117-Clipped" transform="translate(0.000000, 0.000000)">
                <mask id="mask-2" fill="white">
                    <use xlink:href="#path-1"></use>
                </mask>
                <g id="Rectangle_3276"></g>
                <g id="Group_7117" mask="url(#mask-2)" fill="#FFFFFF" fill-rule="nonzero">
                    <g transform="translate(0.000000, 24.333000)">
                        <path d="M27.435,0.001 L28.91,0.001 C30.0816521,-0.0238188615 31.1788834,0.573494996 31.794,1.571 C32.1733105,2.15224981 32.3739147,2.83194001 32.371,3.526 L32.371,18.526 C32.4051143,19.7009586 31.8211022,20.8078872 30.832,21.443 C30.2593884,21.8193721 29.5938809,22.0301334 28.909,22.052 L27.435,22.052 C26.2628483,22.0778341 25.1650009,21.4798042 24.551,20.481 C24.1714203,19.8998746 23.9707917,19.2201018 23.974,18.526 L23.974,3.526 C23.9396701,2.35123877 24.5232796,1.24435387 25.512,0.609 C26.0844082,0.232200431 26.7500394,0.0213999023 27.435,0 M27.435,1.7 C26.7028516,1.66250058 26.0246907,2.08455601 25.735,2.758 C25.6304785,3.0009972 25.5757332,3.26248274 25.574,3.527 L25.574,18.527 C25.5393192,19.2423151 25.9651233,19.8999369 26.632,20.161 C26.8798455,20.2870534 27.153941,20.3528364 27.432,20.353 L28.907,20.353 C29.638828,20.3903686 30.3167626,19.9688528 30.607,19.296 C30.7106393,19.0527624 30.7650212,18.7913893 30.767,18.527 L30.767,3.527 C30.8021207,2.8113255 30.376239,2.15318121 29.709,1.892 C29.4610892,1.76612401 29.1870367,1.70035142 28.909,1.7 L27.435,1.7 Z" id="Path_8752"></path>
                        <path d="M51.376,0.001 L52.851,0.001 C54.0226521,-0.0238188615 55.1198834,0.573494996 55.735,1.571 C56.1143105,2.15224981 56.3149147,2.83194001 56.312,3.526 L56.312,18.526 C56.3461143,19.7009586 55.7621022,20.8078872 54.773,21.443 C54.2003884,21.8193721 53.5348809,22.0301334 52.85,22.052 L51.375,22.052 C50.2028483,22.0778341 49.1050009,21.4798042 48.491,20.481 C48.1114203,19.8998746 47.9107917,19.2201018 47.914,18.526 L47.914,3.526 C47.8796701,2.35123877 48.4632796,1.24435387 49.452,0.609 C50.0244082,0.232200431 50.6900394,0.0213999023 51.375,0 M51.375,1.7 C50.6428516,1.66250058 49.9646907,2.08455601 49.675,2.758 C49.5704785,3.0009972 49.5157332,3.26248274 49.514,3.527 L49.514,18.527 C49.4793192,19.2423151 49.9051233,19.8999369 50.572,20.161 C50.8198455,20.2870534 51.093941,20.3528364 51.372,20.353 L52.847,20.353 C53.578828,20.3903686 54.2567626,19.9688528 54.547,19.296 C54.6506393,19.0527624 54.7050212,18.7913893 54.707,18.527 L54.707,3.527 C54.7421207,2.8113255 54.316239,2.15318121 53.649,1.892 C53.4010892,1.76612401 53.1270367,1.70035142 52.849,1.7 L51.375,1.7 Z" id="Path_8753"></path>
                        <polygon id="Path_8754" points="71.857 0.032 73.457 0.032 78.681 16.602 78.681 0.032 80.281 0.032 80.281 21.987 78.681 21.987 73.457 5.417 73.457 21.987 71.857 21.987"></polygon>
                        <polygon id="Path_8755" points="167.335 0.032 168.035 15.545 169.189 10 170.727 10 171.883 15.545 172.588 0.032 174.188 0.032 173.194 21.987 171.559 21.987 169.959 14.134 168.359 21.987 166.725 21.987 165.731 0.032"></polygon>
                        <polygon id="Path_8756" points="189.77 0.001 198.232 0.001 198.232 1.701 191.373 1.701 191.373 10.132 195.379 10.132 195.379 11.832 191.373 11.832 191.373 20.261 198.232 20.261 198.232 21.961 189.77 21.961 189.77 0.001"></polygon>
                        <polygon id="Path_8757" points="213.806 0.032 215.406 0.032 215.406 20.289 222.265 20.289 222.265 21.989 213.806 21.989"></polygon>
                        <polygon id="Path_8758" points="237.846 0.032 239.446 0.032 239.446 20.289 246.305 20.289 246.305 21.989 237.843 21.989"></polygon>
                        <polygon id="Path_8751" points="4.262 8.27 1.73 0.033 1.602 0.065 0 0.065 0 22.052 1.6 22.052 1.6 5.161 3.587 11.571 4.936 11.571 6.827 5.417 6.827 22.052 8.427 22.052 8.427 0.065 6.923 0.065 6.795 0.033"></polygon>
                    </g>
                </g>
            </g>
            <g id="Group_7119-Clipped" transform="translate(91.176000, 0.000000)">
                <mask id="mask-4" fill="white">
                    <use xlink:href="#path-3"></use>
                </mask>
                <g id="Path_8759"></g>
                <g id="Group_7119" mask="url(#mask-4)" fill="#FFFFFF" fill-rule="nonzero">
                    <g transform="translate(-12.720000, -13.612307)" id="Rectangle_3277">
                        <rect transform="translate(46.808129, 45.464611) rotate(-11.768000) translate(-46.808129, -45.464611) " x="6.93962908" y="7.32961088" width="79.737" height="76.27"></rect>
                    </g>
                </g>
            </g>
            <g id="Group_7121-Clipped" transform="translate(0.000000, 0.000000)">
                <mask id="mask-6" fill="white">
                    <use xlink:href="#path-5"></use>
                </mask>
                <g id="Rectangle_3276"></g>
                <g id="Group_7121" mask="url(#mask-6)" fill="#FFFFFF" fill-rule="nonzero">
                    <g transform="translate(92.345000, 8.863000)">
                        <path d="M50.711,20.978 C48.420035,20.9848743 46.1396521,21.2890822 43.927,21.883 L43.572,21.983 C43.454,22.017 43.335,22.052 43.217,22.083 C41.8703255,22.4853314 40.5618903,23.0060283 39.307,23.639 C38.1577309,24.2198856 37.0612524,24.8997893 36.03,25.671 C35.91,25.761 35.788,25.854 35.658,25.957 C35.528,26.06 35.386,26.174 35.244,26.291 C31.8738092,29.1637962 29.3847067,32.931077 28.064,37.158 C27.864,37.764 27.671,38.39 27.501,39.019 C27.0933811,40.5424159 26.7791301,42.0892922 26.56,43.651 L26.69,43.651 C39.3839876,43.1827283 49.8723045,33.592491 51.472,20.991 C51.229,20.982 50.972,20.978 50.712,20.978" id="Path_8760"></path>
                        <path d="M23.407,37.16 C22.0865319,32.9323999 19.5974209,29.1644128 16.227,26.291 C16.085,26.174 15.946,26.061 15.813,25.957 C15.68,25.853 15.561,25.757 15.441,25.671 C14.4098622,24.8996213 13.3133686,24.2197082 12.164,23.639 C10.9092897,23.0063969 9.6012197,22.4857121 8.255,22.083 L7.899,21.983 C7.78033333,21.949 7.662,21.9156667 7.544,21.883 C5.3310289,21.2889743 3.05030135,20.9847652 0.759,20.978 C0.497,20.978 0.243,20.978 0,20.991 C1.60339125,33.6429591 12.1643292,43.2534084 24.911,43.66 C24.6917066,42.0989793 24.3774571,40.5527783 23.97,39.03 C23.8,38.4 23.61,37.773 23.406,37.167" id="Path_8761"></path>
                        <path d="M30.134,30.359 C31.4823827,28.3223472 33.1496928,26.5159259 35.072,25.009 C35.196,24.909 35.328,24.809 35.477,24.701 C35.597,24.611 35.721,24.521 35.846,24.432 C36.7846575,23.7625719 37.772458,23.1648774 38.801,22.644 C40.1536541,21.9620939 41.565455,21.4044693 43.019,20.978 C43.3134029,16.3820329 42.8144507,11.7696851 41.544,7.343 C38.8715614,8.61734225 36.386974,10.2529841 34.16,12.204 C34.068,12.285 33.975,12.367 33.883,12.45 C33.791,12.533 33.698,12.616 33.606,12.701 C32.6276034,13.5954802 31.7089628,14.5532048 30.856,15.568 C28.937462,17.8500594 27.4049161,20.4304249 26.319,23.207 C26.259,23.362 26.196,23.527 26.133,23.696 C26.061,23.891 25.997,24.071 25.933,24.247 C24.5630376,28.3521364 24.0803937,32.7013854 24.517,37.007 C25.0290153,38.5684863 25.4349398,40.162784 25.732,41.779 C26.0306517,40.1531844 26.4392565,38.5495024 26.955,36.979 C27.099,36.545 27.255,36.11 27.415,35.687 C27.539,35.363 27.669,35.037 27.803,34.72 C28.4403684,33.1960247 29.2194559,31.7352774 30.13,30.357" id="Path_8762"></path>
                        <path d="M12.668,22.643 C13.6968044,23.1639794 14.6849298,23.7616682 15.624,24.431 C15.748,24.519 15.872,24.609 15.993,24.699 C16.144,24.811 16.276,24.912 16.398,25.007 C18.3202127,26.5140283 19.9875076,28.3204332 21.336,30.357 C22.0558685,31.4444799 22.6926754,32.5847151 23.241,33.768 C23.2358754,31.5580348 23.4648189,29.3537412 23.924,27.192 C24.2230235,25.809541 24.6241226,24.4511518 25.124,23.128 C24.0397258,20.3802604 22.5176972,17.8262107 20.617,15.565 C19.7638703,14.5500414 18.8452412,13.5919947 17.867,12.697 C17.7743333,12.6123333 17.682,12.5286667 17.59,12.446 C17.498,12.3633333 17.4056667,12.2813333 17.313,12.2 C15.0850646,10.2503701 12.5998259,8.61608851 9.927,7.343 C8.65616024,11.769951 8.15720182,16.3826947 8.452,20.979 C9.90522827,21.4054533 11.3166985,21.9630795 12.669,22.645" id="Path_8763"></path>
                        <path d="M21.454,14.825 C23.1927308,16.8861789 24.6340764,19.1808199 25.736,21.642 C26.837912,19.1808137 28.2792586,16.8861711 30.018,14.825 C30.9273074,13.7456504 31.9081881,12.7286882 32.954,11.781 C31.262641,7.45876193 28.8192509,3.47018247 25.737,0 C22.6546283,3.46971848 20.2112177,7.45799304 18.52,11.78 C19.5657279,12.7277749 20.546603,13.7447312 21.456,14.824" id="Path_8764"></path>
                    </g>
                </g>
            </g>
        </g>
    </g>
</svg>