<svg width="36" height="37" viewBox="0 0 36 37" fill="none" xmlns="http://www.w3.org/2000/svg">
<g clip-path="url(#clip0_2105_863)">
<path d="M31.7263 26.2132C29.7355 26.2132 28.0588 27.5812 27.5858 29.4264H26.7522C26.2952 29.4264 25.9236 29.0548 25.9236 28.5978V23.4507H29.1794C32.9402 23.4507 35.9999 20.391 35.9999 16.6301C35.9999 12.8692 32.9402 9.80952 29.1794 9.80952C28.8421 9.80952 28.5064 9.83452 28.1747 9.88368C26.8758 5.40457 22.7601 2.25781 18 2.25781C13.2399 2.25781 9.12413 5.40457 7.82527 9.88368C7.49348 9.83424 7.15785 9.80952 6.82057 9.80952C3.05969 9.80952 0 12.8692 0 16.6298C0 20.3907 3.05969 23.4504 6.82057 23.4504H10.0764V28.5978C10.0764 29.0545 9.70475 29.4264 9.24772 29.4264H8.41414C7.94118 27.5812 6.26439 26.2132 4.27367 26.2132C1.91711 26.2132 0 28.1306 0 30.4871C0 32.8437 1.91711 34.7608 4.27367 34.7608C6.26439 34.7608 7.94118 33.393 8.41414 31.5476H9.24772C10.8742 31.5476 12.1975 30.2243 12.1975 28.5978V23.4507H16.9392V26.3467C15.0941 26.8196 13.7263 28.4967 13.7263 30.4871C13.7263 32.8437 15.6434 34.7608 18 34.7608C20.3565 34.7608 22.2736 32.8437 22.2736 30.4871C22.2736 28.4967 20.9056 26.8196 19.0607 26.3467V23.4507H23.8024V28.5978C23.8024 30.2243 25.1257 31.5476 26.7522 31.5476H27.5858C28.0588 33.393 29.7355 34.7608 31.7263 34.7608C34.0828 34.7608 35.9999 32.8437 35.9999 30.4871C35.9999 28.1306 34.0828 26.2132 31.7263 26.2132V26.2132ZM4.27367 32.6396C3.08688 32.6396 2.12118 31.6739 2.12118 30.4871C2.12118 29.3001 3.08688 28.3346 4.27367 28.3346C5.46074 28.3346 6.42617 29.3001 6.42617 30.4871C6.42617 31.6739 5.46074 32.6396 4.27367 32.6396ZM20.1525 30.4871C20.1525 31.6739 19.1868 32.6396 18 32.6396C16.8132 32.6396 15.8475 31.6739 15.8475 30.4871C15.8475 29.3001 16.8132 28.3346 18 28.3346C19.1868 28.3346 20.1525 29.3001 20.1525 30.4871ZM2.12118 16.6298C2.12118 14.0387 4.22918 11.9307 6.82057 11.9307C7.31853 11.9307 7.81126 12.0093 8.28477 12.1644C8.57646 12.26 8.89506 12.2246 9.15873 12.0672C9.42213 11.9098 9.6045 11.6462 9.65889 11.344C10.384 7.30822 13.8919 4.37899 18 4.37899C22.108 4.37899 25.6159 7.30822 26.341 11.344C26.3954 11.6462 26.5778 11.9098 26.8412 12.0672C27.1046 12.2246 27.4235 12.26 27.7152 12.1644C28.1887 12.0093 28.6814 11.9307 29.1794 11.9307C31.7705 11.9307 33.8787 14.0387 33.8787 16.6298C33.8787 19.2212 31.7707 21.3292 29.1794 21.3292H6.82057C4.22918 21.3292 2.12118 19.2212 2.12118 16.6298V16.6298ZM31.7263 32.6396C30.5392 32.6396 29.5738 31.6739 29.5738 30.4871C29.5738 29.3001 30.5392 28.3344 31.7263 28.3344C32.9131 28.3344 33.8787 29.3001 33.8787 30.4871C33.8787 31.6739 32.9131 32.6396 31.7263 32.6396Z" fill="#367E62"/>
</g>
<defs>
<clipPath id="clip0_2105_863">
<rect y="0.5" width="36" height="36" rx="5" fill="#ffffff"/>
</clipPath>
</defs>
</svg>
