<svg width="36" height="37" viewBox="0 0 36 37" fill="none" xmlns="http://www.w3.org/2000/svg">
<g clip-path="url(#clip0_2105_826)">
<path d="M33.428 23.6426C32.7179 23.6426 32.1423 24.2182 32.1423 24.9283V32.6426C32.1423 33.3527 31.5666 33.9283 30.8565 33.9283H5.14237C4.43227 33.9283 3.85663 33.3527 3.85663 32.6426V24.9283C3.85663 24.2182 3.281 23.6426 2.57089 23.6426C1.86079 23.6426 1.28516 24.2182 1.28516 24.9283V32.6426C1.28516 34.7728 3.01205 36.4997 5.1423 36.4997H30.8566C32.9869 36.4997 34.7138 34.7728 34.7138 32.6426V24.9283C34.7138 24.2182 34.1381 23.6426 33.428 23.6426Z" fill="#367E62"/>
<path d="M25.3078 22.7339C24.8096 22.2527 24.0197 22.2527 23.5215 22.7339L19.285 26.9677V1.78574C19.285 1.07563 18.7094 0.5 17.9993 0.5C17.2892 0.5 16.7136 1.07563 16.7136 1.78574V26.9677L12.4797 22.7339C11.9689 22.2406 11.155 22.2547 10.6617 22.7654C10.1805 23.2637 10.1805 24.0536 10.6617 24.5518L17.0902 30.9804C17.5917 31.4831 18.4058 31.4841 18.9085 30.9827C18.9093 30.982 18.91 30.9812 18.9109 30.9804L25.3394 24.5518C25.8328 24.0411 25.8186 23.2271 25.3078 22.7339Z" fill="#367E62"/>
</g>
<defs>
<clipPath id="clip0_2105_826">
<rect y="0.5" width="36" height="36" rx="5" fill="#ffffff"/>
</clipPath>
</defs>
</svg>
