<svg width="36" height="37" viewBox="0 0 36 37" fill="none" xmlns="http://www.w3.org/2000/svg">
<g clip-path="url(#clip0_2105_788)">
<path d="M18.2308 13.8604C16.2028 13.8604 14.5586 15.5044 14.5586 17.5326C14.5586 19.5606 16.2027 21.2048 18.2308 21.2048C20.2589 21.2048 21.903 19.5607 21.903 17.5326C21.903 15.5044 20.259 13.8604 18.2308 13.8604ZM18.2308 19.456C17.1685 19.456 16.3073 18.5948 16.3073 17.5325C16.3073 16.4701 17.1685 15.6089 18.2308 15.6089C19.2932 15.6089 20.1544 16.4701 20.1544 17.5325C20.1544 18.5948 19.2932 19.456 18.2308 19.456Z" fill="#367E62"/>
<path d="M32.876 5.46664L9.00682 2.75629C8.08044 2.62458 7.14185 2.89502 6.42759 3.4995C5.71342 4.05327 5.25562 4.87413 5.15981 5.77273L4.72269 9.3575H3.36739C1.44384 9.3575 0.00118142 11.0624 0.00118142 12.986V30.866C-0.047267 32.7002 1.40041 34.2266 3.23476 34.275C3.27894 34.2762 3.32321 34.2764 3.36739 34.2758H27.3677C29.2912 34.2758 31.0399 32.7895 31.0399 30.866V30.1665C31.6363 30.0513 32.202 29.8131 32.7011 29.4671C33.4095 28.8707 33.863 28.0262 33.9689 27.1064L35.9799 9.3575C36.1849 7.42952 34.8013 5.69516 32.876 5.46664ZM29.2913 30.866C29.2913 31.8277 28.3295 32.5272 27.3677 32.5272H3.36739C2.49858 32.5527 1.77361 31.8691 1.74809 31.0003C1.74675 30.9555 1.74733 30.9107 1.74984 30.866V27.631L8.52594 22.6473C9.33994 22.0223 10.4865 22.0779 11.2364 22.7784L16.0015 26.9752C16.7251 27.5828 17.636 27.9224 18.5808 27.937C19.3195 27.946 20.046 27.7493 20.6792 27.3686L29.2913 22.385V30.866H29.2913ZM29.2913 20.3303L19.761 25.8823C18.9427 26.3671 17.9069 26.2793 17.1817 25.6637L12.3729 21.4232C10.9947 20.2389 8.9803 20.1663 7.5204 21.2483L1.74984 25.4451V12.986C1.74984 12.0242 2.40561 11.1062 3.36739 11.1062H27.3677C28.3952 11.1488 29.2251 11.9597 29.2913 12.986V20.3303ZM34.2329 9.12145C34.2323 9.12722 34.2318 9.13308 34.2312 9.13886L32.1765 26.8877C32.18 27.348 31.9701 27.7838 31.6082 28.0681C31.4333 28.243 31.0398 28.3304 31.0398 28.4178V12.986C30.9708 10.9944 29.3599 9.4026 27.3676 9.3575H6.47127L6.86471 5.94761C6.95006 5.50606 7.18093 5.10592 7.52048 4.81096C7.90389 4.54587 8.36745 4.42228 8.83202 4.46119L32.6575 7.21531C33.6188 7.3066 34.3242 8.16001 34.2329 9.12145Z" fill="#367E62"/>
</g>
<defs>
<clipPath id="clip0_2105_788">
<rect y="0.5" width="36" height="36" rx="5" fill="#ffffff"/>
</clipPath>
</defs>
</svg>
