<svg width="36" height="37" viewBox="0 0 36 37" fill="none" xmlns="http://www.w3.org/2000/svg">
<path d="M18 2.9834C8.04825 2.9834 0 11.0487 0 20.9834C0 25.7886 1.8732 30.308 5.27449 33.709C5.48037 33.9149 5.75037 34.0179 6.02023 34.0179C6.29016 34.0179 6.56009 33.9149 6.76603 33.7089L9.96061 30.5141C10.3724 30.1022 10.3724 29.4345 9.96061 29.0226C9.05759 28.1196 6.64355 25.4339 6.62815 20.9826C6.62857 14.6582 11.7642 9.61148 18 9.61148C24.3211 9.61148 29.3714 14.7429 29.3719 20.9826C29.3627 23.6303 28.4887 26.056 26.9239 28.0296C25.2983 25.5085 21.6695 19.9661 20.3433 18.6402C19.0374 17.3342 16.9391 17.3577 15.6566 18.6402C14.3481 19.9486 14.3768 22.0469 15.6566 23.3266C17.2413 24.9116 24.8484 29.7853 26.1227 30.5976L29.2339 33.7089C29.4398 33.9149 29.7098 34.0179 29.9797 34.0179C30.2496 34.0179 30.5195 33.9149 30.7254 33.709C34.1268 30.3079 36 25.7886 36 20.9834C36 11.0305 27.933 2.9834 18 2.9834ZM7.75181 29.7398L6.04434 31.4474C3.73064 28.8122 2.37157 25.534 2.14362 22.0381H4.55927C4.77928 24.8903 5.88938 27.567 7.75181 29.7398ZM4.5592 19.9287H2.14362C2.3715 16.4328 3.73057 13.1545 6.04434 10.5193L7.75181 12.2268C5.88762 14.4007 4.77886 17.0759 4.5592 19.9287ZM16.9453 7.54253C14.0924 7.76219 11.417 8.87123 9.24328 10.7352L7.53595 9.02774C10.1715 6.71404 13.4497 5.3549 16.9453 5.12702V7.54253ZM17.1482 21.835C16.6745 21.3614 16.6813 20.5986 17.1482 20.1318C17.6181 19.6618 18.3823 19.6622 18.8518 20.1318C18.8518 20.1318 18.8518 20.1318 18.8519 20.1318C19.6083 20.8881 21.4831 23.6073 23.1818 26.1651C20.6239 24.4665 17.9047 22.5917 17.1482 21.835ZM19.0547 7.54253V5.12702C22.5503 5.3549 25.8285 6.71404 28.464 9.02781L26.7567 10.7353C24.583 8.87123 21.9076 7.76219 19.0547 7.54253ZM28.2482 12.2268L29.9557 10.5193C32.2694 13.1545 33.6284 16.4328 33.8564 19.9287H31.4409C31.2211 17.0759 30.1124 14.4007 28.2482 12.2268ZM29.9557 31.4474L28.2482 29.7398C30.1106 27.567 31.2207 24.8903 31.4407 22.038H33.8564C33.6284 25.534 32.2694 28.8122 29.9557 31.4474Z" fill="#367E62"/>
</svg>
