<svg width="38" height="38" viewBox="0 0 38 38" fill="none" xmlns="http://www.w3.org/2000/svg">
<path d="M30.875 5.9375H7.125C6.49511 5.9375 5.89102 6.18772 5.44562 6.63312C5.00022 7.07852 4.75 7.68261 4.75 8.3125V17.0258C4.75 30.2961 16.0016 34.7047 18.2578 35.4469C18.7399 35.6055 19.2601 35.6055 19.7422 35.4469C21.9984 34.7047 33.25 30.2961 33.25 17.0258V8.3125C33.25 7.68261 32.9998 7.07852 32.5544 6.63312C32.109 6.18772 31.5049 5.9375 30.875 5.9375ZM26.3477 16.2984L17.6492 24.6109C17.4243 24.8225 17.1267 24.9394 16.818 24.9375C16.5138 24.9387 16.221 24.8216 16.0016 24.6109L11.6523 20.4547C11.5317 20.3494 11.4336 20.2209 11.3639 20.0768C11.2942 19.9326 11.2544 19.7759 11.2469 19.616C11.2393 19.4561 11.2641 19.2963 11.3199 19.1462C11.3757 18.9962 11.4612 18.8589 11.5713 18.7428C11.6815 18.6266 11.814 18.5339 11.9609 18.4703C12.1078 18.4066 12.266 18.3733 12.4261 18.3724C12.5862 18.3715 12.7448 18.4029 12.8925 18.4648C13.0401 18.5268 13.1737 18.6179 13.2852 18.7328L16.818 22.1023L24.7148 14.5766C24.9457 14.3751 25.2456 14.2707 25.5516 14.2852C25.8577 14.2997 26.1464 14.4319 26.3572 14.6543C26.5681 14.8766 26.6848 15.1719 26.683 15.4783C26.6812 15.7847 26.5611 16.0786 26.3477 16.2984Z" fill="white"/>
</svg>
