<svg width="36" height="37" viewBox="0 0 36 37" fill="none" xmlns="http://www.w3.org/2000/svg">
<g clip-path="url(#clip0_2105_813)">
<path d="M14.3606 22.4138C14.9003 21.7955 15.1703 20.8959 15.1703 19.7149V10.249H13.0252V19.729C13.0252 20.3517 12.9237 20.8096 12.7208 21.1026C12.5177 21.3954 12.181 21.5419 11.7104 21.5419C11.406 21.5419 11.0694 21.4958 10.7002 21.4036V23.1888C11.06 23.2902 11.4821 23.3411 11.9665 23.3411C13.0229 23.3411 13.8209 23.0319 14.3606 22.4138Z" fill="#367E62"/>
<path d="M32.0357 6.46512L26.3194 0.74857C26.1602 0.589381 25.9445 0.5 25.7193 0.5H4.56438C4.09575 0.5 3.71582 0.879926 3.71582 1.34855V35.6514C3.71582 36.1201 4.09575 36.5 4.56438 36.5H31.4358C31.9045 36.5 32.2843 36.1201 32.2843 35.6514V7.06499C32.2843 6.83995 32.1949 6.62419 32.0357 6.46512ZM26.5679 3.39708L29.3871 6.21643H26.5679V3.39708ZM5.41293 2.19711H24.8709V3.35827H5.41293V2.19711ZM30.5872 34.8029H5.41293V5.05538H24.8709V7.0651C24.8709 7.53384 25.2507 7.91366 25.7194 7.91366H30.5872V34.8029Z" fill="#367E62"/>
<path d="M21.2177 14.526C20.5027 14.1847 20.0494 13.9482 19.858 13.8166C19.6666 13.6852 19.527 13.5493 19.4395 13.4085C19.3518 13.2678 19.308 13.1029 19.308 12.9138C19.308 12.6093 19.4163 12.3626 19.6332 12.1733C19.85 11.9842 20.1613 11.8895 20.5674 11.8895C20.9087 11.8895 21.2559 11.9335 21.6087 12.021C21.9616 12.1087 22.4079 12.2632 22.9478 12.4846L23.6396 10.8172C23.1184 10.5911 22.619 10.4157 22.1416 10.2913C21.6641 10.1666 21.1625 10.1045 20.6365 10.1045C19.5662 10.1045 18.7277 10.3605 18.1212 10.8725C17.5146 11.3846 17.2113 12.0881 17.2113 12.983C17.2113 13.4581 17.3035 13.8733 17.488 14.2286C17.6726 14.5838 17.9193 14.8952 18.2286 15.1628C18.5374 15.4304 19.0011 15.7094 19.6194 16C20.279 16.3138 20.7161 16.5421 20.9307 16.6851C21.1452 16.8281 21.3077 16.9768 21.4184 17.1313C21.5293 17.2859 21.5846 17.4625 21.5846 17.6607C21.5846 18.0161 21.4589 18.2834 21.2074 18.4634C20.9559 18.6433 20.5951 18.7334 20.1247 18.7334C19.7324 18.7334 19.3 18.6711 18.8271 18.5465C18.3541 18.4219 17.7764 18.2075 17.0938 17.9029V19.8958C17.9242 20.3019 18.879 20.5047 19.9585 20.5047C21.1302 20.5047 22.0447 20.2418 22.7021 19.7158C23.3596 19.1899 23.6882 18.4703 23.6882 17.5568C23.6882 16.8972 23.5129 16.3402 23.1624 15.8858C22.8117 15.4314 22.1635 14.9781 21.2177 14.526Z" fill="#367E62"/>
<path d="M14.9992 31.9299C14.9991 32.2839 14.9471 32.5339 14.8432 32.68C14.7392 32.826 14.5659 32.8991 14.3234 32.8991C14.2194 32.8991 14.1229 32.8898 14.0338 32.8712C13.9446 32.8527 13.8606 32.8358 13.7812 32.8211V33.961C14.0214 34.0131 14.2751 34.039 14.5425 34.039C15.186 34.039 15.6688 33.8501 15.9906 33.4727C16.3123 33.0953 16.4732 32.5388 16.4732 31.8036V26.9062H14.9992V31.9299Z" fill="#367E62"/>
<path d="M19.9492 29.0968C19.4615 28.874 19.1627 28.7206 19.0525 28.6365C18.9423 28.5524 18.8873 28.457 18.8873 28.3507C18.8872 28.2514 18.9304 28.1685 19.0171 28.1016C19.1037 28.0348 19.2422 28.0013 19.433 28.0013C19.8018 28.0013 20.2399 28.1177 20.7473 28.3504L21.1966 27.2179C20.6125 26.958 20.0393 26.8281 19.4776 26.8281C18.8414 26.8281 18.3414 26.968 17.9774 27.2476C17.6136 27.5274 17.4318 27.9173 17.4318 28.4172C17.4318 28.6845 17.4744 28.916 17.5598 29.1115C17.6452 29.3071 17.7764 29.4805 17.9534 29.6315C18.1304 29.7825 18.3958 29.9385 18.7498 30.0994C19.141 30.2751 19.3816 30.3915 19.4721 30.4483C19.5624 30.5053 19.628 30.5617 19.6689 30.6173C19.7096 30.673 19.7301 30.7379 19.7301 30.8123C19.7301 30.9311 19.6794 31.0281 19.5778 31.1037C19.4763 31.1793 19.3166 31.217 19.0989 31.217C18.8465 31.217 18.5692 31.1768 18.2672 31.0962C17.9651 31.0159 17.6743 30.9039 17.3945 30.7603V32.0672C17.6594 32.1935 17.9144 32.282 18.1595 32.3328C18.4045 32.3834 18.7077 32.4089 19.0691 32.4089C19.5023 32.4089 19.8798 32.3365 20.2017 32.1917C20.5234 32.047 20.7698 31.844 20.9405 31.5827C21.1113 31.3216 21.1967 31.0227 21.1967 30.6861C21.1967 30.3198 21.1058 30.0159 20.9238 29.7744C20.742 29.5331 20.417 29.3072 19.9492 29.0968Z" fill="#367E62"/>
</g>
<defs>
<clipPath id="clip0_2105_813">
<rect y="0.5" width="36" height="36" rx="5" fill="#ffffff"/>
</clipPath>
</defs>
</svg>
