<svg width="36" height="37" viewBox="0 0 36 37" fill="none" xmlns="http://www.w3.org/2000/svg">
<g clip-path="url(#clip0_2105_799)">
<path d="M35.9297 22.0859C35.9297 21.6864 35.704 21.3212 35.3467 21.1426L32.3114 19.625L35.3467 18.1074C35.704 17.9288 35.9297 17.5636 35.9297 17.1641C35.9297 16.7645 35.704 16.3993 35.3467 16.2207L27.4069 12.2509C27.3665 11.9356 27.1857 11.6421 26.8891 11.4709L26.0243 10.9715C26.0653 10.643 26.0859 10.3156 26.0859 9.99219C26.0859 9.66875 26.0653 9.34138 26.0243 9.01287L26.8891 8.51352C27.3936 8.22221 27.5664 7.57723 27.2751 7.07281L25.1658 3.4193C24.8745 2.91481 24.2295 2.74191 23.7251 3.03329L22.8565 3.53469C22.3299 3.13538 21.7641 2.80632 21.1641 2.55031V1.55469C21.1641 0.972219 20.6918 0.5 20.1094 0.5H15.8906C15.3082 0.5 14.8359 0.972219 14.8359 1.55469V2.55031C14.2359 2.80632 13.6701 3.13538 13.1435 3.53469L12.2749 3.03329C11.7703 2.74191 11.1254 2.91488 10.8342 3.4193L8.72487 7.07281C8.43356 7.57723 8.60639 8.22228 9.11088 8.51352L9.97573 9.01287C9.93473 9.34138 9.91406 9.66875 9.91406 9.99219C9.91406 10.3156 9.93473 10.643 9.97573 10.9715L9.11088 11.4709C8.81437 11.6421 8.63353 11.9357 8.5931 12.2509L0.653344 16.2207C0.296016 16.3993 0.0703125 16.7645 0.0703125 17.1641C0.0703125 17.5636 0.296016 17.9288 0.653344 18.1074L3.68859 19.625L0.653344 21.1426C0.296016 21.3212 0.0703125 21.6864 0.0703125 22.0859C0.0703125 22.4855 0.296016 22.8507 0.653344 23.0292L3.68859 24.5469L0.653344 26.0645C0.296016 26.2431 0.0703125 26.6083 0.0703125 27.0078C0.0703125 27.4073 0.296016 27.7725 0.653344 27.9511L17.5283 36.3886C17.6768 36.4629 17.8384 36.5 18 36.5C18.1616 36.5 18.3232 36.4629 18.4717 36.3886L35.3467 27.9511C35.704 27.7725 35.9297 27.4073 35.9297 27.0078C35.9297 26.6083 35.704 26.2431 35.3467 26.0645L32.3114 24.5469L35.3467 23.0292C35.704 22.8507 35.9297 22.4855 35.9297 22.0859ZM12.1691 11.2893C12.0724 10.8527 12.0234 10.4163 12.0234 9.99219C12.0234 9.56806 12.0724 9.13163 12.1691 8.69506C12.2687 8.2457 12.0653 7.78367 11.6667 7.55361L11.0789 7.21421L12.1336 5.38749L12.7258 5.72928C13.1247 5.95955 13.6268 5.90436 13.9662 5.59302C14.6251 4.98847 15.379 4.55014 16.2067 4.29012C16.6463 4.15196 16.9453 3.74464 16.9453 3.28388V2.60938H19.0547V3.28388C19.0547 3.74464 19.3537 4.15203 19.7933 4.29012C20.621 4.55014 21.3749 4.98854 22.0338 5.59302C22.3732 5.90436 22.8753 5.95955 23.2742 5.72928L23.8664 5.38749L24.9211 7.21421L24.3333 7.55361C23.9347 7.78367 23.7313 8.24577 23.8309 8.69506C23.9276 9.13163 23.9766 9.56806 23.9766 9.99219C23.9766 10.4163 23.9276 10.8527 23.8309 11.2893C23.7313 11.7387 23.9347 12.2007 24.3333 12.4308L24.9211 12.7702L23.8664 14.5969L23.2742 14.255C22.8753 14.0247 22.3731 14.0799 22.0338 14.3913C21.3749 14.9958 20.6211 15.4342 19.7933 15.6942C19.3537 15.8323 19.0547 16.2397 19.0547 16.7005V17.375H16.9453V16.7005C16.9453 16.2397 16.6463 15.8323 16.2067 15.6942C15.3789 15.4342 14.6251 14.9958 13.9662 14.3913C13.6269 14.0799 13.1247 14.0247 12.7258 14.255L12.1336 14.5969L11.0789 12.7702L11.6667 12.4308C12.0654 12.2007 12.2687 11.7387 12.1691 11.2893ZM3.48335 17.1641L9.45591 14.1777L10.8342 16.565C11.1255 17.0696 11.7706 17.2424 12.2749 16.951L13.1435 16.4495C13.6701 16.8489 14.2359 17.1779 14.8359 17.434V18.4297C14.8359 19.0122 15.3082 19.4844 15.8906 19.4844H20.1094C20.6918 19.4844 21.1641 19.0122 21.1641 18.4297V17.4341C21.7641 17.178 22.3299 16.849 22.8565 16.4496L23.7251 16.9511C24.2294 17.2424 24.8745 17.0695 25.1658 16.5651L26.5441 14.1778L32.5167 17.1641L18 24.4224L3.48335 17.1641ZM32.5167 27.0078L18 34.2661L3.48335 27.0078L6.04688 25.726L17.5283 31.4667C17.6768 31.541 17.8384 31.5781 18 31.5781C18.1616 31.5781 18.3232 31.541 18.4717 31.4667L29.9531 25.726L32.5167 27.0078ZM18 29.3442L3.48335 22.0859L6.04688 20.8041L17.5283 26.5449C17.6768 26.6191 17.8384 26.6562 18 26.6562C18.1616 26.6562 18.3232 26.6191 18.4717 26.5449L29.9531 20.8041L32.5167 22.0859L18 29.3442Z" fill="#367E62"/>
<path d="M18 13.8594C20.1324 13.8594 21.8672 12.1246 21.8672 9.99219C21.8672 7.85982 20.1324 6.125 18 6.125C15.8676 6.125 14.1328 7.85982 14.1328 9.99219C14.1328 12.1246 15.8676 13.8594 18 13.8594ZM18 8.23438C18.9693 8.23438 19.7578 9.02293 19.7578 9.99219C19.7578 10.9614 18.9693 11.75 18 11.75C17.0307 11.75 16.2422 10.9614 16.2422 9.99219C16.2422 9.02293 17.0307 8.23438 18 8.23438Z" fill="#367E62"/>
</g>
<defs>
<clipPath id="clip0_2105_799">
<rect y="0.5" width="36" height="36" rx="5" fill="#ffffff"/>
</clipPath>
</defs>
</svg>
