<svg width="37" height="37" viewBox="0 0 37 37" fill="none" xmlns="http://www.w3.org/2000/svg">
<g clip-path="url(#clip0_2105_846)">
<path d="M36.6234 2.7949C36.5454 1.36488 35.4081 0.227718 33.9781 0.149671C31.0926 -0.0079696 25.4462 0.145382 20.047 2.93798C17.2947 4.36167 14.3837 6.77543 12.0607 9.56037C12.0321 9.59468 12.0042 9.6292 11.9758 9.66359L6.70377 10.0708C5.83597 10.1379 5.06303 10.5928 4.58308 11.3187L0.986311 16.7589C0.622303 17.3094 0.564436 17.9984 0.831412 18.6019C1.09846 19.2055 1.64718 19.6261 2.29933 19.7271L6.74104 20.4151C6.72536 20.5014 6.70961 20.5877 6.69519 20.674C6.54733 21.5586 6.84039 22.468 7.47925 23.1068L13.6662 29.2938C14.1958 29.8234 14.9116 30.1155 15.6449 30.1155C15.7959 30.1155 15.9478 30.103 16.099 30.0778C16.1853 30.0634 16.2716 30.0476 16.358 30.0319L17.0459 34.4737C17.1469 35.1259 17.5675 35.6746 18.171 35.9416C18.4221 36.0527 18.6878 36.1076 18.9523 36.1076C19.3237 36.1075 19.6926 35.9993 20.0141 35.7868L25.4543 32.19C26.1803 31.7099 26.635 30.937 26.702 30.0693L27.1092 24.7973C27.1436 24.7689 27.1782 24.741 27.2125 24.7124C29.9975 22.3894 32.4114 19.4784 33.835 16.726C36.6277 11.3266 36.7808 5.68017 36.6234 2.7949ZM24.291 30.4303L19.0871 33.8709L18.4166 29.5421C20.6159 28.8955 22.7916 27.8598 24.8644 26.4723L24.5991 29.9067C24.5826 30.1209 24.4702 30.3118 24.291 30.4303ZM15.1577 27.8022L8.97072 21.6152C8.81287 21.4573 8.73988 21.2355 8.77567 21.0218C8.95961 19.9219 9.24543 18.8749 9.59924 17.8885L18.8825 27.1717C17.6978 27.5961 16.6367 27.8492 15.7512 27.9973C15.5371 28.0329 15.3156 27.9601 15.1577 27.8022ZM6.86626 12.174L10.3006 11.9087C8.91306 13.9814 7.87736 16.1571 7.23069 18.3565L2.90197 17.686L6.34265 12.4821C6.46119 12.3028 6.65209 12.1905 6.86626 12.174ZM25.8615 23.0925C24.1577 24.5137 22.5037 25.5417 20.9792 26.2855L10.4871 15.7934C11.4615 13.8033 12.6507 12.1461 13.6805 10.9116C15.8303 8.33426 18.504 6.11091 21.0162 4.81153C25.9714 2.24843 31.1922 2.11041 33.8632 2.25581C34.2168 2.27508 34.498 2.55626 34.5172 2.90986C34.6628 5.58089 34.5245 10.8016 31.9614 15.7569C30.6621 18.269 28.4388 20.9427 25.8615 23.0925Z" fill="#367E62"/>
<path d="M25.3265 16.7183C26.6767 16.7182 28.0274 16.2042 29.0553 15.1763C30.0513 14.1803 30.5997 12.8561 30.5997 11.4476C30.5997 10.0391 30.0512 8.71479 29.0553 7.71882C26.9992 5.66267 23.6537 5.66281 21.5978 7.71882C20.6017 8.71479 20.0532 10.0391 20.0532 11.4476C20.0532 12.8561 20.6018 14.1803 21.5978 15.1763C22.6259 16.2044 23.9759 16.7185 25.3265 16.7183ZM23.0892 9.21029C23.706 8.59343 24.5162 8.28504 25.3264 8.28504C26.1367 8.28504 26.9469 8.59343 27.5637 9.21029C28.1612 9.80787 28.4903 10.6024 28.4903 11.4475C28.4903 12.2926 28.1612 13.0872 27.5637 13.6848C26.3301 14.9184 24.3227 14.9183 23.0891 13.6848C22.4915 13.0872 22.1624 12.2926 22.1624 11.4476C22.1624 10.6025 22.4916 9.80787 23.0892 9.21029Z" fill="#367E62"/>
<path d="M1.74166 29.7745C2.01159 29.7745 2.28152 29.6716 2.4874 29.4656L5.93081 26.0221C6.3427 25.6102 6.3427 24.9425 5.93081 24.5306C5.51899 24.1187 4.85116 24.1187 4.43927 24.5306L0.99593 27.974C0.584039 28.3859 0.584039 29.0537 0.99593 29.4656C1.2018 29.6715 1.47173 29.7745 1.74166 29.7745Z" fill="#367E62"/>
<path d="M9.08619 27.6868C8.67437 27.275 8.00654 27.275 7.59465 27.6868L0.974445 34.3071C0.562555 34.719 0.562555 35.3868 0.974445 35.7987C1.18039 36.0046 1.45025 36.1075 1.72018 36.1075C1.99011 36.1075 2.26004 36.0046 2.46591 35.7986L9.08612 29.1784C9.49808 28.7665 9.49808 28.0987 9.08619 27.6868Z" fill="#367E62"/>
<path d="M10.7509 30.8421L7.30745 34.2855C6.89556 34.6974 6.89556 35.3652 7.30745 35.7771C7.5134 35.983 7.78333 36.086 8.05319 36.086C8.32304 36.086 8.59304 35.9831 8.79892 35.7771L12.2423 32.3337C12.6542 31.9218 12.6542 31.254 12.2423 30.8421C11.8305 30.4302 11.1627 30.4302 10.7509 30.8421Z" fill="#367E62"/>
</g>
<defs>
<clipPath id="clip0_2105_846">
<rect x="0.666016" y="0.107422" width="36" height="36" rx="5" fill="#ffffff"/>
</clipPath>
</defs>
</svg>
