<svg width="150" height="36" viewBox="0 0 150 36" fill="none" xmlns="http://www.w3.org/2000/svg">
<g filter="url(#filter0_ii_436_9836)">
<path d="M1.1822 1.98301C0.809053 2.37949 0.5885 2.99481 0.5885 3.79164V32.2611C0.5885 33.0593 0.809053 33.6733 1.1822 34.0698L1.27708 34.1625L17.1632 18.2143V18.0264V17.8384L1.27708 1.88904L1.1822 1.98301Z" fill="url(#paint0_linear_436_9836)"/>
<path d="M22.4572 23.5317L17.1627 18.214V18.026V17.8381L22.4585 12.5216L22.5778 12.5898L28.8519 16.1685C30.6433 17.1906 30.6433 18.8628 28.8519 19.8861L22.5778 23.4648L22.4572 23.5317Z" fill="url(#paint1_linear_436_9836)"/>
<g filter="url(#filter1_i_436_9836)">
<path d="M22.5783 23.4636L17.162 18.0261L1.18225 34.0695C1.7721 34.6977 2.74791 34.7749 3.84682 34.1493L22.5783 23.4636Z" fill="url(#paint2_linear_436_9836)"/>
</g>
<path d="M22.5783 12.5889L3.84682 1.90442C2.74791 1.27752 1.7721 1.35604 1.18225 1.98424L17.1633 18.0276L22.5783 12.5889Z" fill="url(#paint3_linear_436_9836)"/>
</g>
<path d="M74.72 19.8639C71.6703 19.8639 69.1846 22.1825 69.1846 25.3758C69.1846 28.5497 71.6703 30.8877 74.72 30.8877C77.771 30.8877 80.2567 28.5497 80.2567 25.3758C80.2554 22.1825 77.7697 19.8639 74.72 19.8639ZM74.72 28.7182C73.0486 28.7182 71.608 27.3405 71.608 25.3771C71.608 23.3929 73.0499 22.036 74.72 22.036C76.3914 22.036 77.832 23.3929 77.832 25.3771C77.832 27.3393 76.3914 28.7182 74.72 28.7182ZM62.643 19.8639C59.5933 19.8639 57.1076 22.1825 57.1076 25.3758C57.1076 28.5497 59.5933 30.8877 62.643 30.8877C65.694 30.8877 68.1797 28.5497 68.1797 25.3758C68.1797 22.1825 65.694 19.8639 62.643 19.8639ZM62.643 28.7182C60.9716 28.7182 59.531 27.3405 59.531 25.3771C59.531 23.3929 60.9729 22.036 62.643 22.036C64.3144 22.036 65.7549 23.3929 65.7549 25.3771C65.7562 27.3393 64.3144 28.7182 62.643 28.7182ZM48.2787 21.5565V23.8945H53.8776C53.7103 25.2099 53.2721 26.1703 52.603 26.8377C51.7887 27.6516 50.5141 28.5497 48.2787 28.5497C44.8322 28.5497 42.1377 25.7724 42.1377 22.3276C42.1377 18.8829 44.8322 16.1056 48.2787 16.1056C50.1381 16.1056 51.4957 16.8365 52.498 17.7761L54.1486 16.1263C52.7482 14.7901 50.8901 13.7676 48.2787 13.7676C43.5576 13.7676 39.5885 17.6089 39.5885 22.3276C39.5885 27.0464 43.5576 30.8877 48.2787 30.8877C50.8266 30.8877 52.7495 30.0518 54.2523 28.4862C55.798 26.9414 56.279 24.7693 56.279 23.0158C56.279 22.4741 56.2375 21.9725 56.1532 21.5552L48.2787 21.5565ZM107.027 23.3722C106.568 22.141 105.168 19.8639 102.306 19.8639C99.4653 19.8639 97.1041 22.0982 97.1041 25.3758C97.1041 28.4655 99.4446 30.8877 102.577 30.8877C105.104 30.8877 106.567 29.3429 107.174 28.4447L105.294 27.1915C104.667 28.1104 103.81 28.7156 102.577 28.7156C101.345 28.7156 100.468 28.1518 99.9036 27.0451L107.278 23.9969L107.027 23.3722ZM99.5068 25.2099C99.4446 23.0793 101.157 21.9946 102.391 21.9946C103.351 21.9946 104.166 22.4754 104.438 23.1636L99.5068 25.2099ZM93.5124 30.5546H95.9345V14.3534H93.5124V30.5546ZM89.542 21.0964H89.459C88.9158 20.4484 87.8707 19.8639 86.5558 19.8639C83.7979 19.8639 81.2707 22.2862 81.2707 25.3978C81.2707 28.4875 83.7979 30.889 86.5558 30.889C87.8719 30.889 88.9158 30.3045 89.459 29.6371H89.542V30.4302C89.542 32.5388 88.4139 33.6663 86.5973 33.6663C85.114 33.6663 84.1946 32.6023 83.8186 31.7042L81.709 32.5816C82.3145 34.0421 83.9223 35.8384 86.5973 35.8384C89.4383 35.8384 91.841 34.1679 91.841 30.0958V20.1996H89.5433L89.542 21.0964ZM86.7646 28.7182C85.0932 28.7182 83.6941 27.3185 83.6941 25.3978C83.6941 23.4551 85.0932 22.036 86.7646 22.036C88.414 22.036 89.7093 23.4551 89.7093 25.3978C89.7093 27.3185 88.414 28.7182 86.7646 28.7182ZM118.378 14.3534H112.581V30.5546H114.999V24.4168H118.377C121.058 24.4168 123.696 22.4767 123.696 19.3857C123.696 16.2948 121.06 14.3534 118.378 14.3534ZM118.441 22.1617H114.999V16.6084H118.441C120.249 16.6084 121.276 18.1053 121.276 19.3857C121.276 20.6402 120.249 22.1617 118.441 22.1617ZM133.394 19.8354C131.642 19.8354 129.828 20.6066 129.077 22.316L131.224 23.2115C131.683 22.316 132.539 22.0231 133.435 22.0231C134.686 22.0231 135.958 22.7735 135.979 24.107V24.2742C135.541 24.0241 134.602 23.6496 133.456 23.6496C131.141 23.6496 128.784 24.9209 128.784 27.2965C128.784 29.4647 130.682 30.8605 132.809 30.8605C134.435 30.8605 135.332 30.1308 135.895 29.2755H135.978V30.5261H138.314V24.3144C138.316 21.4399 136.166 19.8354 133.394 19.8354ZM133.1 28.7143C132.31 28.7143 131.203 28.3177 131.203 27.338C131.203 26.0873 132.581 25.6078 133.77 25.6078C134.832 25.6078 135.333 25.8372 135.979 26.1495C135.791 27.6516 134.498 28.7143 133.1 28.7143ZM146.823 20.1892L144.049 27.2135H143.966L141.088 20.1892H138.482L142.798 30.0064L140.337 35.4677H142.86L149.513 20.1892H146.823ZM125.031 30.5546H127.45V14.3534H125.031V30.5546Z" fill="white"/>
<path d="M47.9769 4.7703C47.9769 5.83667 47.6556 6.68544 47.0117 7.31915C46.2811 8.07248 45.3276 8.44914 44.1565 8.44914C43.0346 8.44914 42.0798 8.06739 41.296 7.30388C40.5109 6.5391 40.1184 5.59235 40.1184 4.46235C40.1184 3.33108 40.5109 2.38433 41.296 1.62082C42.0798 0.856042 43.0346 0.474288 44.1565 0.474288C44.7135 0.474288 45.246 0.581179 45.7512 0.793689C46.2577 1.00747 46.6632 1.29124 46.9664 1.64627L46.2837 2.31816C45.7693 1.71372 45.0607 1.41213 44.1552 1.41213C43.3364 1.41213 42.6291 1.69463 42.0318 2.25963C41.4346 2.82462 41.1367 3.55887 41.1367 4.46108C41.1367 5.36329 41.4346 6.09753 42.0318 6.66253C42.6291 7.22753 43.3364 7.51003 44.1552 7.51003C45.0231 7.51003 45.7473 7.22626 46.3264 6.65744C46.7021 6.28714 46.9197 5.77177 46.978 5.11133H44.1552V4.19385H47.9212C47.96 4.39364 47.9769 4.58579 47.9769 4.7703Z" fill="white"/>
<path d="M53.9492 1.58145H50.4099V4.00177H53.602V4.91926H50.4099V7.33958H53.9492V8.2787H49.4111V0.643604H53.9492V1.58145Z" fill="white"/>
<path d="M58.1607 8.2787H57.1619V1.58145H54.9906V0.643604H60.3319V1.58145H58.1607V8.2787Z" fill="white"/>
<path d="M64.1963 8.2787V0.643604H65.1952V8.2787H64.1963Z" fill="white"/>
<path d="M69.6246 8.2787H68.6258V1.58145H66.4546V0.643604H71.7959V1.58145H69.6246V8.2787Z" fill="white"/>
<path d="M81.9069 7.29249C81.1426 8.06363 80.193 8.4492 79.0568 8.4492C77.9207 8.4492 76.9711 8.06363 76.208 7.29249C75.4437 6.52134 75.0628 5.57714 75.0628 4.46114C75.0628 3.34514 75.4437 2.40094 76.208 1.62979C76.9711 0.858646 77.9207 0.471802 79.0568 0.471802C80.1865 0.471802 81.1348 0.859918 81.9017 1.63488C82.6687 2.40984 83.0521 3.35151 83.0521 4.46114C83.0521 5.57714 82.67 6.52134 81.9069 7.29249ZM76.9452 6.65241C77.5204 7.22504 78.2238 7.51009 79.0568 7.51009C79.8898 7.51009 80.5946 7.22377 81.1685 6.65241C81.7437 6.07978 82.0326 5.34936 82.0326 4.46114C82.0326 3.57292 81.7437 2.8425 81.1685 2.26987C80.5946 1.69723 79.8898 1.41219 79.0568 1.41219C78.2238 1.41219 77.5204 1.69851 76.9452 2.26987C76.3713 2.8425 76.0824 3.57292 76.0824 4.46114C76.0824 5.34936 76.3713 6.07978 76.9452 6.65241Z" fill="white"/>
<path d="M84.4539 8.2787V0.643604H85.6691L89.4467 6.58243H89.4895L89.4467 5.11141V0.643604H90.4455V8.2787H89.4027L85.4501 2.05101H85.4074L85.4501 3.52203V8.2787H84.4539Z" fill="white"/>
<path d="M47.9769 4.7703C47.9769 5.83667 47.6556 6.68544 47.0117 7.31915C46.2811 8.07248 45.3276 8.44914 44.1565 8.44914C43.0346 8.44914 42.0798 8.06739 41.296 7.30388C40.5109 6.5391 40.1184 5.59235 40.1184 4.46235C40.1184 3.33108 40.5109 2.38433 41.296 1.62082C42.0798 0.856042 43.0346 0.474288 44.1565 0.474288C44.7135 0.474288 45.246 0.581179 45.7512 0.793689C46.2577 1.00747 46.6632 1.29124 46.9664 1.64627L46.2837 2.31816C45.7693 1.71372 45.0607 1.41213 44.1552 1.41213C43.3364 1.41213 42.6291 1.69463 42.0318 2.25963C41.4346 2.82462 41.1367 3.55887 41.1367 4.46108C41.1367 5.36329 41.4346 6.09753 42.0318 6.66253C42.6291 7.22753 43.3364 7.51003 44.1552 7.51003C45.0231 7.51003 45.7473 7.22626 46.3264 6.65744C46.7021 6.28714 46.9197 5.77177 46.978 5.11133H44.1552V4.19385H47.9212C47.96 4.39364 47.9769 4.58579 47.9769 4.7703Z" stroke="black" stroke-width="0.204511" stroke-miterlimit="10"/>
<path d="M53.9492 1.58145H50.4099V4.00177H53.602V4.91926H50.4099V7.33958H53.9492V8.2787H49.4111V0.643604H53.9492V1.58145Z" stroke="black" stroke-width="0.204511" stroke-miterlimit="10"/>
<path d="M58.1607 8.2787H57.1619V1.58145H54.9906V0.643604H60.3319V1.58145H58.1607V8.2787Z" stroke="black" stroke-width="0.204511" stroke-miterlimit="10"/>
<path d="M64.1963 8.2787V0.643604H65.1952V8.2787H64.1963Z" stroke="black" stroke-width="0.204511" stroke-miterlimit="10"/>
<path d="M69.6246 8.2787H68.6258V1.58145H66.4546V0.643604H71.7959V1.58145H69.6246V8.2787Z" stroke="black" stroke-width="0.204511" stroke-miterlimit="10"/>
<path d="M81.9069 7.29249C81.1426 8.06363 80.193 8.4492 79.0568 8.4492C77.9207 8.4492 76.9711 8.06363 76.208 7.29249C75.4437 6.52134 75.0628 5.57714 75.0628 4.46114C75.0628 3.34514 75.4437 2.40094 76.208 1.62979C76.9711 0.858646 77.9207 0.471802 79.0568 0.471802C80.1865 0.471802 81.1348 0.859918 81.9017 1.63488C82.6687 2.40984 83.0521 3.35151 83.0521 4.46114C83.0521 5.57714 82.67 6.52134 81.9069 7.29249ZM76.9452 6.65241C77.5204 7.22504 78.2238 7.51009 79.0568 7.51009C79.8898 7.51009 80.5946 7.22377 81.1685 6.65241C81.7437 6.07978 82.0326 5.34936 82.0326 4.46114C82.0326 3.57292 81.7437 2.8425 81.1685 2.26987C80.5946 1.69723 79.8898 1.41219 79.0568 1.41219C78.2238 1.41219 77.5204 1.69851 76.9452 2.26987C76.3713 2.8425 76.0824 3.57292 76.0824 4.46114C76.0824 5.34936 76.3713 6.07978 76.9452 6.65241Z" stroke="black" stroke-width="0.204511" stroke-miterlimit="10"/>
<path d="M84.4539 8.2787V0.643604H85.6691L89.4467 6.58243H89.4895L89.4467 5.11141V0.643604H90.4455V8.2787H89.4027L85.4501 2.05101H85.4074L85.4501 3.52203V8.2787H84.4539Z" stroke="black" stroke-width="0.204511" stroke-miterlimit="10"/>
<defs>
<filter id="filter0_ii_436_9836" x="0.588501" y="1.4718" width="29.6069" height="33.1096" filterUnits="userSpaceOnUse" color-interpolation-filters="sRGB">
<feFlood flood-opacity="0" result="BackgroundImageFix"/>
<feBlend mode="normal" in="SourceGraphic" in2="BackgroundImageFix" result="shape"/>
<feColorMatrix in="SourceAlpha" type="matrix" values="0 0 0 0 0 0 0 0 0 0 0 0 0 0 0 0 0 0 127 0" result="hardAlpha"/>
<feOffset dy="-0.795"/>
<feComposite in2="hardAlpha" operator="arithmetic" k2="-1" k3="1"/>
<feColorMatrix type="matrix" values="0 0 0 0 0 0 0 0 0 0 0 0 0 0 0 0 0 0 0.12 0"/>
<feBlend mode="normal" in2="shape" result="effect1_innerShadow_436_9836"/>
<feColorMatrix in="SourceAlpha" type="matrix" values="0 0 0 0 0 0 0 0 0 0 0 0 0 0 0 0 0 0 127 0" result="hardAlpha"/>
<feOffset dy="0.795"/>
<feComposite in2="hardAlpha" operator="arithmetic" k2="-1" k3="1"/>
<feColorMatrix type="matrix" values="0 0 0 0 1 0 0 0 0 1 0 0 0 0 1 0 0 0 0.25 0"/>
<feBlend mode="normal" in2="effect1_innerShadow_436_9836" result="effect2_innerShadow_436_9836"/>
</filter>
<filter id="filter1_i_436_9836" x="1.18225" y="18.0261" width="21.396" height="16.5553" filterUnits="userSpaceOnUse" color-interpolation-filters="sRGB">
<feFlood flood-opacity="0" result="BackgroundImageFix"/>
<feBlend mode="normal" in="SourceGraphic" in2="BackgroundImageFix" result="shape"/>
<feColorMatrix in="SourceAlpha" type="matrix" values="0 0 0 0 0 0 0 0 0 0 0 0 0 0 0 0 0 0 127 0" result="hardAlpha"/>
<feOffset dy="-0.795"/>
<feComposite in2="hardAlpha" operator="arithmetic" k2="-1" k3="1"/>
<feColorMatrix type="matrix" values="0 0 0 0 0 0 0 0 0 0 0 0 0 0 0 0 0 0 0.08 0"/>
<feBlend mode="normal" in2="shape" result="effect1_innerShadow_436_9836"/>
</filter>
<linearGradient id="paint0_linear_436_9836" x1="15.755" y1="3.49042" x2="-5.84798" y2="25.0094" gradientUnits="userSpaceOnUse">
<stop stop-color="#00A0FF"/>
<stop offset="0.0066" stop-color="#00A1FF"/>
<stop offset="0.2601" stop-color="#00BEFF"/>
<stop offset="0.5122" stop-color="#00D2FF"/>
<stop offset="0.7604" stop-color="#00DFFF"/>
<stop offset="1" stop-color="#00E3FF"/>
</linearGradient>
<linearGradient id="paint1_linear_436_9836" x1="31.1838" y1="18.026" x2="0.157947" y2="18.026" gradientUnits="userSpaceOnUse">
<stop stop-color="#FFE000"/>
<stop offset="0.4087" stop-color="#FFBD00"/>
<stop offset="0.7754" stop-color="#FFA500"/>
<stop offset="1" stop-color="#FF9C00"/>
</linearGradient>
<linearGradient id="paint2_linear_436_9836" x1="19.6369" y1="20.979" x2="-9.65946" y2="50.1615" gradientUnits="userSpaceOnUse">
<stop stop-color="#FF3A44"/>
<stop offset="1" stop-color="#C31162"/>
</linearGradient>
<linearGradient id="paint3_linear_436_9836" x1="-2.8423" y1="-7.49298" x2="10.2393" y2="5.53779" gradientUnits="userSpaceOnUse">
<stop stop-color="#32A071"/>
<stop offset="0.0685" stop-color="#2DA771"/>
<stop offset="0.4762" stop-color="#15CF74"/>
<stop offset="0.8009" stop-color="#06E775"/>
<stop offset="1" stop-color="#00F076"/>
</linearGradient>
</defs>
</svg>
