<svg width="28" height="28" viewBox="0 0 28 28" fill="none" xmlns="http://www.w3.org/2000/svg">
<path d="M8.12656 9.37344C7.98703 9.20343 7.91573 8.9876 7.92652 8.76793C7.9373 8.54826 8.02942 8.34045 8.18493 8.18493C8.34045 8.02942 8.54826 7.9373 8.76793 7.92652C8.9876 7.91573 9.20343 7.98703 9.37344 8.12656L13.125 11.8891V2.625C13.125 2.39294 13.2172 2.17038 13.3813 2.00628C13.5454 1.84219 13.7679 1.75 14 1.75C14.2321 1.75 14.4546 1.84219 14.6187 2.00628C14.7828 2.17038 14.875 2.39294 14.875 2.625V11.8891L18.6266 8.12656C18.7966 7.98703 19.0124 7.91573 19.2321 7.92652C19.4517 7.9373 19.6595 8.02942 19.8151 8.18493C19.9706 8.34045 20.0627 8.54826 20.0735 8.76793C20.0843 8.9876 20.013 9.20343 19.8734 9.37344L14.6234 14.6234C14.4562 14.7852 14.2326 14.8756 14 14.8756C13.7674 14.8756 13.5438 14.7852 13.3766 14.6234L8.12656 9.37344ZM26.25 14.875V21.875C26.25 22.3391 26.0656 22.7842 25.7374 23.1124C25.4092 23.4406 24.9641 23.625 24.5 23.625H3.5C3.03587 23.625 2.59075 23.4406 2.26256 23.1124C1.93437 22.7842 1.75 22.3391 1.75 21.875V14.875C1.75 14.4109 1.93437 13.9658 2.26256 13.6376C2.59075 13.3094 3.03587 13.125 3.5 13.125H9.23125C9.28879 13.1232 9.34603 13.134 9.39894 13.1566C9.45185 13.1793 9.49915 13.2133 9.5375 13.2562L12.1406 15.8594C12.6346 16.351 13.3031 16.6269 14 16.6269C14.6969 16.6269 15.3654 16.351 15.8594 15.8594L18.4625 13.2562C18.5008 13.2133 18.5481 13.1793 18.6011 13.1566C18.654 13.134 18.7112 13.1232 18.7688 13.125H24.5C24.9641 13.125 25.4092 13.3094 25.7374 13.6376C26.0656 13.9658 26.25 14.4109 26.25 14.875ZM21.875 18.375C21.875 18.1154 21.798 17.8617 21.6538 17.6458C21.5096 17.43 21.3046 17.2617 21.0648 17.1624C20.8249 17.0631 20.561 17.0371 20.3064 17.0877C20.0518 17.1384 19.818 17.2634 19.6344 17.4469C19.4509 17.6305 19.3259 17.8643 19.2752 18.1189C19.2246 18.3735 19.2506 18.6374 19.3499 18.8773C19.4492 19.1171 19.6175 19.3221 19.8333 19.4663C20.0492 19.6105 20.3029 19.6875 20.5625 19.6875C20.9106 19.6875 21.2444 19.5492 21.4906 19.3031C21.7367 19.0569 21.875 18.7231 21.875 18.375Z" fill="white"/>
</svg>
