<svg width="30" height="33" viewBox="0 0 30 33" fill="none" xmlns="http://www.w3.org/2000/svg">
<path d="M26.875 10.875H21.5312V6.71875C21.5312 4.98656 20.8431 3.32531 19.6183 2.10046C18.3934 0.875612 16.7322 0.1875 15 0.1875C13.2678 0.1875 11.6066 0.875612 10.3817 2.10046C9.15686 3.32531 8.46875 4.98656 8.46875 6.71875V10.875H3.125C2.49511 10.875 1.89102 11.1252 1.44562 11.5706C1.00022 12.016 0.75 12.6201 0.75 13.25V29.875C0.75 30.5049 1.00022 31.109 1.44562 31.5544C1.89102 31.9998 2.49511 32.25 3.125 32.25H26.875C27.5049 32.25 28.109 31.9998 28.5544 31.5544C28.9998 31.109 29.25 30.5049 29.25 29.875V13.25C29.25 12.6201 28.9998 12.016 28.5544 11.5706C28.109 11.1252 27.5049 10.875 26.875 10.875ZM16.1875 23.7594V26.3125C16.1875 26.6274 16.0624 26.9295 15.8397 27.1522C15.617 27.3749 15.3149 27.5 15 27.5C14.6851 27.5 14.383 27.3749 14.1603 27.1522C13.9376 26.9295 13.8125 26.6274 13.8125 26.3125V23.7594C12.8558 23.4741 12.0337 22.8541 11.4966 22.0125C10.9594 21.171 10.7432 20.1642 10.8873 19.1763C11.0314 18.1885 11.5263 17.2855 12.2815 16.6325C13.0367 15.9795 14.0017 15.6201 15 15.6201C15.9983 15.6201 16.9633 15.9795 17.7185 16.6325C18.4737 17.2855 18.9686 18.1885 19.1127 19.1763C19.2568 20.1642 19.0406 21.171 18.5034 22.0125C17.9663 22.8541 17.1442 23.4741 16.1875 23.7594ZM19.1562 10.875H10.8438V6.71875C10.8438 5.61644 11.2816 4.55929 12.0611 3.77984C12.8405 3.00039 13.8977 2.5625 15 2.5625C16.1023 2.5625 17.1595 3.00039 17.9389 3.77984C18.7184 4.55929 19.1562 5.61644 19.1562 6.71875V10.875Z" fill="white"/>
</svg>
