<svg width="38" height="38" viewBox="0 0 38 38" fill="none" xmlns="http://www.w3.org/2000/svg">
<path d="M35.907 16.4173C35.6843 16.1145 35.3937 15.8682 35.0586 15.6981C34.7235 15.5279 34.3531 15.4387 33.9773 15.4376H32.0625V13.0626C32.0625 12.4327 31.8123 11.8286 31.3669 11.3832C30.9215 10.9378 30.3174 10.6876 29.6875 10.6876H19.4008L15.2742 7.60008C14.8652 7.28781 14.3638 7.12068 13.8492 7.12508H5.93747C5.30758 7.12508 4.70349 7.37531 4.25809 7.82071C3.8127 8.26611 3.56247 8.8702 3.56247 9.50008V30.8751C3.56048 31.0316 3.58983 31.1869 3.6488 31.3319C3.70778 31.4768 3.79517 31.6085 3.90584 31.7192C4.01651 31.8299 4.14821 31.9173 4.29319 31.9763C4.43816 32.0352 4.59348 32.0646 4.74997 32.0626H30.875C31.125 32.0626 31.3687 31.9837 31.5713 31.8371C31.7738 31.6905 31.925 31.4837 32.0031 31.2462L36.2336 18.5696C36.3511 18.2103 36.3827 17.8284 36.326 17.4546C36.2693 17.0809 36.1258 16.7256 35.907 16.4173ZM13.8492 9.50008L17.9758 12.5876C18.3848 12.8999 18.8862 13.067 19.4008 13.0626H29.6875V15.4376H10.3609C9.86264 15.4365 9.37666 15.5922 8.97174 15.8825C8.56682 16.1729 8.26348 16.5833 8.10466 17.0556L5.93747 23.5571V9.50008H13.8492Z" fill="white"/>
</svg>
