<svg width="38" height="38" viewBox="0 0 38 38" fill="none" xmlns="http://www.w3.org/2000/svg">
<path d="M33.8735 22.7108L31.0235 14.8882C30.8062 14.2982 30.3638 13.8185 29.7934 13.5542C29.223 13.2898 28.5711 13.2624 27.9805 13.478L19.0891 16.7139L20.7219 7.39207C20.778 7.08438 20.7728 6.76863 20.7066 6.46295C20.6404 6.15727 20.5144 5.86769 20.336 5.61082C19.9739 5.09699 19.4251 4.74533 18.807 4.63113L10.6133 3.19129C9.99383 3.08753 9.35841 3.23183 8.8445 3.59295C8.3306 3.95407 7.97951 4.503 7.8672 5.12097L4.27502 25.4866C4.12232 26.3592 4.14474 27.2535 4.34096 28.1174C4.53719 28.9813 4.9033 29.7976 5.41799 30.5186C5.91407 31.2241 6.54677 31.8228 7.27856 32.2793C8.01035 32.7357 8.82634 33.0405 9.67814 33.1757C10.0077 33.222 10.3399 33.2468 10.6727 33.2499H31.4688C32.0987 33.2499 32.7027 32.9997 33.1481 32.5543C33.5935 32.1089 33.8438 31.5048 33.8438 30.8749V24.3882C34.0615 23.8521 34.0721 23.2542 33.8735 22.7108ZM10.6875 28.4999C10.3352 28.4999 9.99083 28.3954 9.69791 28.1997C9.40498 28.004 9.17668 27.7258 9.04186 27.4003C8.90704 27.0748 8.87176 26.7167 8.94049 26.3711C9.00922 26.0256 9.17887 25.7082 9.42798 25.4591C9.6771 25.21 9.99448 25.0403 10.34 24.9716C10.6855 24.9029 11.0437 24.9382 11.3692 25.073C11.6947 25.2078 11.9728 25.4361 12.1686 25.729C12.3643 26.0219 12.4688 26.3663 12.4688 26.7186C12.4688 27.191 12.2811 27.6441 11.9471 27.9782C11.613 28.3122 11.1599 28.4999 10.6875 28.4999ZM31.4688 30.8749H18.3617L31.4688 26.11V30.8749ZM16.8477 28.9007C16.968 28.558 17.0574 28.2053 17.1149 27.8468L18.6141 19.4155L28.7969 15.7046L31.632 23.5124L16.8477 28.9007Z" fill="white"/>
</svg>
